<svg xmlns="http://www.w3.org/2000/svg" width="64" height="64" viewBox="47.34 -25.84 64 64"><g><g fill="#006eba" transform="matrix(.034739 0 0 .034739 44.585177 -26.534788)"><circle cx="1844.4" cy="1139.8" r="49.6"/><circle cx="1866.5" cy="886" r="49.6"/><circle cx="1811.4" cy="621.3" r="49.6"/><circle cx="1679" cy="400.6" r="49.6"/><circle cx="1491.4" cy="224.1" r="49.6"/><circle cx="1259.7" cy="113.8" r="49.6"/><circle cx="995" cy="69.6" r="49.6"/><circle cx="741.2" cy="113.8" r="49.6"/><circle cx="1745.2" cy="1382.5" r="49.6"/><circle cx="1590.7" cy="1592.1" r="49.6"/><circle cx="1370.1" cy="1735.5" r="49.6"/><circle cx="1127.4" cy="1812.7" r="49.6"/><circle cx="862.6" cy="1801.7" r="49.6"/><circle cx="619.9" cy="1724.5" r="49.6"/><circle cx="410.3" cy="1581.1" r="49.6"/><circle cx="244.8" cy="1371.5" r="49.6"/><circle cx="145.5" cy="1128.7" r="49.6"/><circle cx="134.4" cy="864" r="49.6"/><circle cx="189.6" cy="610.2" r="49.6"/><circle cx="322" cy="400.6" r="49.6"/><circle cx="509.5" cy="224.1" r="49.6"/></g><g fill="#0078c2" transform="matrix(.034739 0 0 .034739 44.585177 -26.534788) rotate(9 -4.182 99.324)"><circle cx="1870" cy="944.7" r="44.1" transform="matrix(.1564 -.9877 .9877 .1564 644.4339 2643.8684)"/><circle cx="1892.1" cy="724" r="44.1" transform="matrix(.1564 -.9877 .9877 .1564 880.9756 2479.5325)"/><circle cx="1847.9" cy="492.3" r="44.1" transform="matrix(.1564 -.9877 .9877 .1564 1072.5753 2240.5115)"/><circle cx="1726.6" cy="282.7" r="44.1" transform="matrix(.1564 -.9877 .9877 .1564 1177.2368 1943.8282)"/><circle cx="1550.1" cy="128.3" r="44.1" transform="matrix(.1564 -.9877 .9877 .1564 1180.8842 1639.1951)"/><circle cx="1351.5" cy="40" r="44.1" transform="matrix(.1564 -.9877 .9877 .1564 1100.5398 1368.6075)"/><circle cx="1119.8" cy="-4.1" r="44.1" transform="matrix(.1564 -.9877 .9877 .1564 948.6905 1102.5564)"/><circle cx="888.1" cy="40" r="44.1" transform="matrix(.1564 -.9877 .9877 .1564 709.6696 910.9568)"/><circle cx="1781.7" cy="1165.3" r="44.1" transform="matrix(.1564 -.9877 .9877 .1564 352.0535 2742.8254)"/><circle cx="1649.4" cy="1352.9" r="44.1" transform="matrix(.1564 -.9877 .9877 .1564 55.1368 2770.2776)"/><circle cx="1450.8" cy="1485.2" r="44.1" transform="matrix(.1564 -.9877 .9877 .1564 -243.1366 2685.8188)"/><circle cx="1230.1" cy="1551.4" r="44.1" transform="matrix(.1564 -.9877 .9877 .1564 -494.6439 2523.7283)"/><circle cx="998.5" cy="1540.4" r="44.1" transform="matrix(.1564 -.9877 .9877 .1564 -679.1827 2285.5967)"/><circle cx="788.8" cy="1474.2" r="44.1" transform="matrix(.1564 -.9877 .9877 .1564 -790.6263 2022.7256)"/><circle cx="590.3" cy="1352.9" r="44.1" transform="matrix(.1564 -.9877 .9877 .1564 -838.2812 1724.2186)"/><circle cx="446.8" cy="1154.3" r="44.1" transform="matrix(.1564 -.9877 .9877 .1564 -763.1288 1415.0491)"/><circle cx="358.6" cy="944.7" r="44.1" transform="matrix(.1564 -.9877 .9877 .1564 -630.5479 1151.0552)"/><circle cx="347.6" cy="702" r="44.1" transform="matrix(.1564 -.9877 .9877 .1564 -400.1325 935.4172)"/><circle cx="391.7" cy="481.3" r="44.1" transform="matrix(.1564 -.9877 .9877 .1564 -144.9779 792.8742)"/><circle cx="513" cy="282.7" r="44.1" transform="matrix(.1564 -.9877 .9877 .1564 153.5289 745.2193)"/><circle cx="678.5" cy="128.3" r="44.1" transform="matrix(.1564 -.9877 .9877 .1564 445.6757 778.3759)"/></g><g fill="#0084cc" transform="matrix(.034739 0 0 .034739 44.585177 -26.534788) rotate(18 8.7 82.989)"><circle cx="1906.5" cy="747.2" r="33.4" transform="rotate(90 1906.541 747.239)"/><circle cx="1926.8" cy="544.9" r="33.4" transform="rotate(90 1926.773 544.918)"/><circle cx="1886.3" cy="332.5" r="33.4" transform="rotate(90 1886.309 332.482)"/><circle cx="1775" cy="140.3" r="33.4" transform="rotate(90 1775.032 140.277)"/><circle cx="1613.2" cy="-1.3" r="33.4" transform="rotate(90 1613.176 -1.347)"/><circle cx="1431.1" cy="-82.3" r="33.4" transform="rotate(90 1431.088 -82.275)"/><circle cx="1218.7" cy="-122.7" r="33.4" transform="rotate(90 1218.651 -122.739)"/><circle cx="1006.2" cy="-82.3" r="33.4" transform="rotate(90 1006.215 -82.275)"/><circle cx="1825.6" cy="949.6" r="33.4" transform="rotate(90 1825.612 949.559)"/><circle cx="1704.2" cy="1121.5" r="33.4" transform="rotate(90 1704.22 1121.531)"/><circle cx="1522.1" cy="1242.9" r="33.4" transform="rotate(90 1522.132 1242.924)"/><circle cx="1319.8" cy="1303.6" r="33.4" transform="rotate(90 1319.811 1303.62)"/><circle cx="1107.4" cy="1293.5" r="33.4" transform="rotate(90 1107.375 1293.504)"/><circle cx="915.2" cy="1232.8" r="33.4" transform="rotate(90 915.17 1232.808)"/><circle cx="733.1" cy="1121.5" r="33.4" transform="rotate(90 733.082 1121.531)"/><circle cx="601.6" cy="939.4" r="33.4" transform="rotate(90 601.574 939.443)"/><circle cx="520.6" cy="747.2" r="33.4" transform="rotate(90 520.646 747.238)"/><circle cx="510.5" cy="524.7" r="33.4" transform="rotate(90 510.53 524.686)"/><circle cx="551" cy="322.4" r="33.4" transform="rotate(90 550.994 322.366)"/><circle cx="662.3" cy="140.3" r="33.4" transform="rotate(90 662.27 140.277)"/><circle cx="814" cy="-1.3" r="33.4" transform="rotate(90 814.01 -1.347)"/></g><g fill="#0085cd" transform="matrix(.034739 0 0 .034739 44.585177 -26.534788) rotate(26 10.567 75.357)"><ellipse cx="1910.1" cy="554.6" rx="27.6" ry="27.7" transform="rotate(90 1910.054 554.561)"/><ellipse cx="1932.2" cy="377.2" rx="27.6" ry="27.7" transform="rotate(90 1932.23 377.159)"/><ellipse cx="1887.9" cy="177.6" rx="27.6" ry="27.7" transform="rotate(90 1887.879 177.582)"/><ellipse cx="1788.1" cy=".2" rx="27.6" ry="27.7" transform="rotate(90 1788.09 .18)"/><ellipse cx="1644" cy="-121.8" rx="27.6" ry="27.7" transform="rotate(90 1643.952 -121.783)"/><ellipse cx="1477.6" cy="-199.4" rx="27.6" ry="27.7" transform="rotate(90 1477.637 -199.397)"/><ellipse cx="1278.1" cy="-232.7" rx="27.6" ry="27.7" transform="rotate(90 1278.06 -232.66)"/><ellipse cx="1089.6" cy="-199.4" rx="27.6" ry="27.7" transform="rotate(90 1089.571 -199.397)"/><ellipse cx="1832.4" cy="743.1" rx="27.6" ry="27.7" transform="rotate(90 1832.441 743.051)"/><ellipse cx="1721.6" cy="898.3" rx="27.6" ry="27.7" transform="rotate(90 1721.565 898.277)"/><ellipse cx="1555.3" cy="1009.2" rx="27.6" ry="27.7" transform="rotate(90 1555.25 1009.154)"/><ellipse cx="1377.8" cy="1064.6" rx="27.6" ry="27.7" transform="rotate(90 1377.849 1064.592)"/><ellipse cx="1178.3" cy="1053.5" rx="27.6" ry="27.7" transform="rotate(90 1178.272 1053.504)"/><ellipse cx="1012" cy="998.1" rx="27.6" ry="27.7" transform="rotate(90 1011.957 998.066)"/><ellipse cx="845.6" cy="898.3" rx="27.6" ry="27.7" transform="rotate(90 845.643 898.277)"/><ellipse cx="723.7" cy="732" rx="27.6" ry="27.7" transform="rotate(90 723.679 731.963)"/><ellipse cx="646.1" cy="554.6" rx="27.6" ry="27.7" transform="rotate(90 646.066 554.561)"/><ellipse cx="635" cy="355" rx="27.6" ry="27.7" transform="rotate(90 634.978 354.984)"/><ellipse cx="679.3" cy="166.5" rx="27.6" ry="27.7" transform="rotate(90 679.329 166.494)"/><ellipse cx="779.1" cy=".2" rx="27.6" ry="27.7" transform="rotate(90 779.117 .18)"/><ellipse cx="912.2" cy="-121.8" rx="27.6" ry="27.7" transform="rotate(90 912.169 -121.784)"/></g><g><g fill="#006eba" transform="matrix(.034739 0 0 .034739 44.585177 -26.534788) rotate(17 -20.396 101.898)"><ellipse cx="1766.7" cy="733.1" rx="25" ry="25.1" transform="rotate(90 1766.722 733.146)"/><ellipse cx="1786.8" cy="572.7" rx="25" ry="25.1" transform="rotate(90 1786.775 572.72)"/><ellipse cx="1746.7" cy="392.2" rx="25" ry="25.1" transform="rotate(90 1746.669 392.242)"/><ellipse cx="1656.4" cy="231.8" rx="25" ry="25.1" transform="rotate(90 1656.429 231.816)"/><ellipse cx="1526.1" cy="121.5" rx="25" ry="25.1" transform="rotate(90 1526.083 121.524)"/><ellipse cx="1375.7" cy="51.3" rx="25" ry="25.1" transform="rotate(90 1375.685 51.337)"/><ellipse cx="1195.2" cy="21.3" rx="25" ry="25.1" transform="rotate(90 1195.206 21.258)"/><ellipse cx="1024.8" cy="51.3" rx="25" ry="25.1" transform="rotate(90 1024.754 51.338)"/><ellipse cx="1696.5" cy="903.6" rx="25" ry="25.1" transform="rotate(90 1696.536 903.598)"/><ellipse cx="1596.3" cy="1044" rx="25" ry="25.1" transform="rotate(90 1596.27 1043.97)"/><ellipse cx="1445.9" cy="1144.2" rx="25" ry="25.1" transform="rotate(90 1445.871 1144.236)"/><ellipse cx="1285.4" cy="1194.4" rx="25" ry="25.1" transform="rotate(90 1285.445 1194.369)"/><ellipse cx="1105" cy="1184.3" rx="25" ry="25.1" transform="rotate(90 1104.967 1184.343)"/><ellipse cx="954.6" cy="1134.2" rx="25" ry="25.1" transform="rotate(90 954.568 1134.21)"/><ellipse cx="804.2" cy="1044" rx="25" ry="25.1" transform="rotate(90 804.169 1043.97)"/><ellipse cx="693.9" cy="893.6" rx="25" ry="25.1" transform="rotate(90 693.876 893.572)"/><ellipse cx="623.7" cy="733.1" rx="25" ry="25.1" transform="rotate(90 623.69 733.146)"/><ellipse cx="613.7" cy="552.7" rx="25" ry="25.1" transform="rotate(90 613.663 552.667)"/><ellipse cx="653.8" cy="382.2" rx="25" ry="25.1" transform="rotate(90 653.77 382.215)"/><ellipse cx="744" cy="231.8" rx="25" ry="25.1" transform="rotate(90 744.009 231.816)"/><ellipse cx="864.3" cy="121.5" rx="25" ry="25.1" transform="rotate(90 864.328 121.524)"/></g><g fill="#0090d6" transform="matrix(.034739 0 0 .034739 44.585177 -26.534788) rotate(17 -20.396 101.898)"><ellipse cx="1766.7" cy="733.1" rx="25" ry="25.1" transform="rotate(90 1766.722 733.146)"/><ellipse cx="1786.8" cy="572.7" rx="25" ry="25.1" transform="rotate(90 1786.775 572.72)"/><ellipse cx="1746.7" cy="392.2" rx="25" ry="25.1" transform="rotate(90 1746.669 392.242)"/><ellipse cx="1656.4" cy="231.8" rx="25" ry="25.1" transform="rotate(90 1656.429 231.816)"/><ellipse cx="1526.1" cy="121.5" rx="25" ry="25.1" transform="rotate(90 1526.083 121.524)"/><ellipse cx="1375.7" cy="51.3" rx="25" ry="25.1" transform="rotate(90 1375.685 51.337)"/><ellipse cx="1195.2" cy="21.3" rx="25" ry="25.1" transform="rotate(90 1195.206 21.258)"/><ellipse cx="1024.8" cy="51.3" rx="25" ry="25.1" transform="rotate(90 1024.754 51.338)"/><ellipse cx="1696.5" cy="903.6" rx="25" ry="25.1" transform="rotate(90 1696.536 903.598)"/><ellipse cx="1596.3" cy="1044" rx="25" ry="25.1" transform="rotate(90 1596.27 1043.97)"/><ellipse cx="1445.9" cy="1144.2" rx="25" ry="25.1" transform="rotate(90 1445.871 1144.236)"/><ellipse cx="1285.4" cy="1194.4" rx="25" ry="25.1" transform="rotate(90 1285.445 1194.369)"/><ellipse cx="1105" cy="1184.3" rx="25" ry="25.1" transform="rotate(90 1104.967 1184.343)"/><ellipse cx="954.6" cy="1134.2" rx="25" ry="25.1" transform="rotate(90 954.568 1134.21)"/><ellipse cx="804.2" cy="1044" rx="25" ry="25.1" transform="rotate(90 804.169 1043.97)"/><ellipse cx="693.9" cy="893.6" rx="25" ry="25.1" transform="rotate(90 693.876 893.572)"/><ellipse cx="623.7" cy="733.1" rx="25" ry="25.1" transform="rotate(90 623.69 733.146)"/><ellipse cx="613.7" cy="552.7" rx="25" ry="25.1" transform="rotate(90 613.663 552.667)"/><ellipse cx="653.8" cy="382.2" rx="25" ry="25.1" transform="rotate(90 653.77 382.215)"/><ellipse cx="744" cy="231.8" rx="25" ry="25.1" transform="rotate(90 744.009 231.816)"/><ellipse cx="864.3" cy="121.5" rx="25" ry="25.1" transform="rotate(90 864.328 121.524)"/></g></g><g><g fill="#006eba" transform="matrix(.034739 0 0 .034739 44.585177 -26.534788) rotate(26 -7.305 85.587)"><ellipse cx="1782" cy="527.6" rx="22.4" ry="22.5" transform="rotate(90 1782.039 527.557)"/><ellipse cx="1800.1" cy="383.3" rx="22.4" ry="22.5" transform="rotate(90 1800.071 383.298)"/><ellipse cx="1764" cy="221" rx="22.4" ry="22.5" transform="rotate(90 1764.007 221.007)"/><ellipse cx="1682.9" cy="76.7" rx="22.4" ry="22.5" transform="rotate(90 1682.861 76.749)"/><ellipse cx="1565.7" cy="-22.4" rx="22.4" ry="22.5" transform="rotate(90 1565.651 -22.429)"/><ellipse cx="1430.4" cy="-85.5" rx="22.4" ry="22.5" transform="rotate(90 1430.408 -85.543)"/><ellipse cx="1268.1" cy="-112.6" rx="22.4" ry="22.5" transform="rotate(90 1268.117 -112.591)"/><ellipse cx="1114.8" cy="-85.5" rx="22.4" ry="22.5" transform="rotate(90 1114.843 -85.543)"/><ellipse cx="1718.9" cy="680.8" rx="22.4" ry="22.5" transform="rotate(90 1718.926 680.832)"/><ellipse cx="1628.8" cy="807.1" rx="22.4" ry="22.5" transform="rotate(90 1628.764 807.058)"/><ellipse cx="1493.5" cy="897.2" rx="22.4" ry="22.5" transform="rotate(90 1493.521 897.22)"/><ellipse cx="1349.3" cy="942.3" rx="22.4" ry="22.5" transform="rotate(90 1349.263 942.301)"/><ellipse cx="1187" cy="933.3" rx="22.4" ry="22.5" transform="rotate(90 1186.972 933.285)"/><ellipse cx="1051.7" cy="888.2" rx="22.4" ry="22.5" transform="rotate(90 1051.729 888.204)"/><ellipse cx="916.5" cy="807.1" rx="22.4" ry="22.5" transform="rotate(90 916.487 807.058)"/><ellipse cx="817.3" cy="671.8" rx="22.4" ry="22.5" transform="rotate(90 817.309 671.816)"/><ellipse cx="754.2" cy="527.6" rx="22.4" ry="22.5" transform="rotate(90 754.196 527.557)"/><ellipse cx="745.2" cy="365.3" rx="22.4" ry="22.5" transform="rotate(90 745.179 365.266)"/><ellipse cx="781.2" cy="212" rx="22.4" ry="22.5" transform="rotate(90 781.244 211.991)"/><ellipse cx="862.4" cy="76.7" rx="22.4" ry="22.5" transform="rotate(90 862.39 76.748)"/><ellipse cx="970.6" cy="-22.4" rx="22.4" ry="22.5" transform="rotate(90 970.584 -22.429)"/></g><g fill="#00a1e5" transform="matrix(.034739 0 0 .034739 44.585177 -26.534788) rotate(26 -7.305 85.587)"><ellipse cx="1782" cy="527.6" rx="22.4" ry="22.5" transform="rotate(90 1782.039 527.557)"/><ellipse cx="1800.1" cy="383.3" rx="22.4" ry="22.5" transform="rotate(90 1800.071 383.298)"/><ellipse cx="1764" cy="221" rx="22.4" ry="22.5" transform="rotate(90 1764.007 221.007)"/><ellipse cx="1682.9" cy="76.7" rx="22.4" ry="22.5" transform="rotate(90 1682.861 76.749)"/><ellipse cx="1565.7" cy="-22.4" rx="22.4" ry="22.5" transform="rotate(90 1565.651 -22.429)"/><ellipse cx="1430.4" cy="-85.5" rx="22.4" ry="22.5" transform="rotate(90 1430.408 -85.543)"/><ellipse cx="1268.1" cy="-112.6" rx="22.4" ry="22.5" transform="rotate(90 1268.117 -112.591)"/><ellipse cx="1114.8" cy="-85.5" rx="22.4" ry="22.5" transform="rotate(90 1114.843 -85.543)"/><ellipse cx="1718.9" cy="680.8" rx="22.4" ry="22.5" transform="rotate(90 1718.926 680.832)"/><ellipse cx="1628.8" cy="807.1" rx="22.4" ry="22.5" transform="rotate(90 1628.764 807.058)"/><ellipse cx="1493.5" cy="897.2" rx="22.4" ry="22.5" transform="rotate(90 1493.521 897.22)"/><ellipse cx="1349.3" cy="942.3" rx="22.4" ry="22.5" transform="rotate(90 1349.263 942.301)"/><ellipse cx="1187" cy="933.3" rx="22.4" ry="22.5" transform="rotate(90 1186.972 933.285)"/><ellipse cx="1051.7" cy="888.2" rx="22.4" ry="22.5" transform="rotate(90 1051.729 888.204)"/><ellipse cx="916.5" cy="807.1" rx="22.4" ry="22.5" transform="rotate(90 916.487 807.058)"/><ellipse cx="817.3" cy="671.8" rx="22.4" ry="22.5" transform="rotate(90 817.309 671.816)"/><ellipse cx="754.2" cy="527.6" rx="22.4" ry="22.5" transform="rotate(90 754.196 527.557)"/><ellipse cx="745.2" cy="365.3" rx="22.4" ry="22.5" transform="rotate(90 745.179 365.266)"/><ellipse cx="781.2" cy="212" rx="22.4" ry="22.5" transform="rotate(90 781.244 211.991)"/><ellipse cx="862.4" cy="76.7" rx="22.4" ry="22.5" transform="rotate(90 862.39 76.748)"/><ellipse cx="970.6" cy="-22.4" rx="22.4" ry="22.5" transform="rotate(90 970.584 -22.429)"/></g></g><g fill="#09aef3" transform="matrix(.034739 0 0 .034739 44.585177 -26.534788) rotate(35 -.663 76.131)"><circle cx="1774.6" cy="314.7" r="20.3" transform="rotate(90 1774.577 314.743)"/><circle cx="1790.8" cy="184.6" r="20.3" transform="rotate(90 1790.848 184.573)"/><circle cx="1758.3" cy="38.1" r="20.3" transform="rotate(90 1758.305 38.131)"/><circle cx="1685.1" cy="-92" r="20.3" transform="rotate(90 1685.085 -92.039)"/><circle cx="1579.3" cy="-181.5" r="20.3" transform="rotate(90 1579.321 -181.531)"/><circle cx="1457.3" cy="-238.5" r="20.3" transform="rotate(90 1457.287 -238.481)"/><circle cx="1310.8" cy="-262.9" r="20.3" transform="rotate(90 1310.845 -262.888)"/><circle cx="1172.5" cy="-238.5" r="20.3" transform="rotate(90 1172.539 -238.481)"/><circle cx="1717.6" cy="453" r="20.3" transform="rotate(90 1717.627 453.049)"/><circle cx="1636.3" cy="566.9" r="20.3" transform="rotate(90 1636.271 566.948)"/><circle cx="1514.2" cy="648.3" r="20.3" transform="rotate(90 1514.236 648.304)"/><circle cx="1384.1" cy="689" r="20.3" transform="rotate(90 1384.066 688.982)"/><circle cx="1237.6" cy="680.8" r="20.3" transform="rotate(90 1237.624 680.847)"/><circle cx="1115.6" cy="640.2" r="20.3" transform="rotate(90 1115.59 640.168)"/><circle cx="993.6" cy="566.9" r="20.3" transform="rotate(90 993.555 566.948)"/><circle cx="904.1" cy="444.9" r="20.3" transform="rotate(90 904.063 444.913)"/><circle cx="847.1" cy="314.7" r="20.3" transform="rotate(90 847.113 314.743)"/><circle cx="839" cy="168.3" r="20.3" transform="rotate(90 838.978 168.301)"/><circle cx="871.5" cy="30" r="20.3" transform="rotate(90 871.52 29.995)"/><circle cx="944.7" cy="-92" r="20.3" transform="rotate(90 944.741 -92.039)"/><circle cx="1042.4" cy="-181.5" r="20.3" transform="rotate(90 1042.369 -181.531)"/></g><g fill="#27bfff" transform="matrix(.034739 0 0 .034739 44.585177 -26.534788) rotate(43 3.355 70.062)"><circle cx="1749.1" cy="123.2" r="19.6" transform="rotate(90 1749.073 123.189)"/><circle cx="1764" cy="3.5" r="19.6" transform="rotate(90 1764.032 3.519)"/><circle cx="1734.1" cy="-131.1" r="19.6" transform="rotate(90 1734.115 -131.109)"/><circle cx="1666.8" cy="-250.8" r="19.6" transform="rotate(90 1666.8 -250.779)"/><circle cx="1569.6" cy="-333.1" r="19.6" transform="rotate(90 1569.569 -333.052)"/><circle cx="1457.4" cy="-385.4" r="19.6" transform="rotate(90 1457.379 -385.407)"/><circle cx="1322.8" cy="-407.8" r="19.6" transform="rotate(90 1322.751 -407.845)"/><circle cx="1195.6" cy="-385.4" r="19.6" transform="rotate(90 1195.602 -385.407)"/><circle cx="1696.7" cy="250.3" r="19.6" transform="rotate(90 1696.718 250.338)"/><circle cx="1621.9" cy="355" r="19.6" transform="rotate(90 1621.924 355.048)"/><circle cx="1509.7" cy="429.8" r="19.6" transform="rotate(90 1509.734 429.842)"/><circle cx="1390.1" cy="467.2" r="19.6" transform="rotate(90 1390.064 467.238)"/><circle cx="1255.4" cy="459.8" r="19.6" transform="rotate(90 1255.436 459.759)"/><circle cx="1143.2" cy="422.4" r="19.6" transform="rotate(90 1143.246 422.362)"/><circle cx="1031.1" cy="355" r="19.6" transform="rotate(90 1031.056 355.048)"/><circle cx="948.8" cy="242.9" r="19.6" transform="rotate(90 948.783 242.858)"/><circle cx="896.4" cy="123.2" r="19.6" transform="rotate(90 896.428 123.188)"/><circle cx="888.9" cy="-11.4" r="19.6" transform="rotate(90 888.948 -11.44)"/><circle cx="918.9" cy="-138.6" r="19.6" transform="rotate(90 918.866 -138.589)"/><circle cx="986.2" cy="-250.8" r="19.6" transform="rotate(90 986.18 -250.779)"/><circle cx="1075.9" cy="-333.1" r="19.6" transform="rotate(90 1075.932 -333.052)"/></g><g fill="#64cffd" transform="matrix(.034739 0 0 .034739 44.585177 -26.534788) rotate(51 5.456 65.539)"><circle cx="1692" cy="-69.5" r="19.6" transform="rotate(90 1692.025 -69.527)"/><circle cx="1705.5" cy="-177.1" r="19.6" transform="rotate(90 1705.47 -177.085)"/><circle cx="1678.6" cy="-298.1" r="19.6" transform="rotate(90 1678.58 -298.089)"/><circle cx="1618.1" cy="-405.6" r="19.6" transform="rotate(90 1618.078 -405.648)"/><circle cx="1530.7" cy="-479.6" r="19.6" transform="rotate(90 1530.687 -479.594)"/><circle cx="1429.9" cy="-526.7" r="19.6" transform="rotate(90 1429.85 -526.651)"/><circle cx="1308.8" cy="-546.8" r="19.6" transform="rotate(90 1308.847 -546.819)"/><circle cx="1194.6" cy="-526.7" r="19.6" transform="rotate(90 1194.565 -526.651)"/><circle cx="1645" cy="44.8" r="19.6" transform="rotate(90 1644.968 44.755)"/><circle cx="1577.7" cy="138.9" r="19.6" transform="rotate(90 1577.744 138.868)"/><circle cx="1476.9" cy="206.1" r="19.6" transform="rotate(90 1476.907 206.093)"/><circle cx="1369.3" cy="239.7" r="19.6" transform="rotate(90 1369.349 239.705)"/><circle cx="1248.3" cy="233" r="19.6" transform="rotate(90 1248.345 232.982)"/><circle cx="1147.5" cy="199.4" r="19.6" transform="rotate(90 1147.509 199.37)"/><circle cx="1046.7" cy="138.9" r="19.6" transform="rotate(90 1046.672 138.869)"/><circle cx="972.7" cy="38" r="19.6" transform="rotate(90 972.726 38.032)"/><circle cx="925.7" cy="-69.5" r="19.6" transform="rotate(90 925.669 -69.526)"/><circle cx="918.9" cy="-190.5" r="19.6" transform="rotate(90 918.946 -190.53)"/><circle cx="945.8" cy="-304.8" r="19.6" transform="rotate(90 945.836 -304.811)"/><circle cx="1006.3" cy="-405.6" r="19.6" transform="rotate(90 1006.338 -405.648)"/><circle cx="1087" cy="-479.6" r="19.6" transform="rotate(90 1087.007 -479.594)"/></g><g fill="#81d9ff"><g transform="matrix(.034739 0 0 .034739 44.585177 -26.534788) rotate(59 7.56 61.569)"><circle cx="1619.3" cy="-257.3" r="19.6" transform="rotate(90 1619.303 -257.262)"/><circle cx="1631.5" cy="-355.2" r="19.6" transform="rotate(90 1631.541 -355.164)"/><circle cx="1607.1" cy="-465.3" r="19.6" transform="rotate(90 1607.065 -465.304)"/><circle cx="1552" cy="-563.2" r="19.6" transform="rotate(90 1551.995 -563.206)"/><circle cx="1472.4" cy="-630.5" r="19.6" transform="rotate(90 1472.45 -630.513)"/><circle cx="1380.7" cy="-673.3" r="19.6" transform="rotate(90 1380.667 -673.346)"/><circle cx="1270.5" cy="-691.7" r="19.6" transform="rotate(90 1270.527 -691.702)"/><circle cx="1166.5" cy="-673.3" r="19.6" transform="rotate(90 1166.506 -673.346)"/><circle cx="1576.5" cy="-153.2" r="19.6" transform="rotate(90 1576.471 -153.241)"/><circle cx="1515.3" cy="-67.6" r="19.6" transform="rotate(90 1515.282 -67.576)"/><circle cx="1423.5" cy="-6.4" r="19.6" transform="rotate(90 1423.499 -6.388)"/><circle cx="1325.6" cy="24.2" r="19.6" transform="rotate(90 1325.597 24.207)"/><circle cx="1215.5" cy="18.1" r="19.6" transform="rotate(90 1215.457 18.088)"/><circle cx="1123.7" cy="-12.5" r="19.6" transform="rotate(90 1123.674 -12.507)"/><circle cx="1031.9" cy="-67.6" r="19.6" transform="rotate(90 1031.891 -67.577)"/><circle cx="964.6" cy="-159.4" r="19.6" transform="rotate(90 964.583 -159.36)"/><circle cx="921.8" cy="-257.3" r="19.6" transform="rotate(90 921.751 -257.262)"/><circle cx="915.6" cy="-367.4" r="19.6" transform="rotate(90 915.632 -367.402)"/><circle cx="940.1" cy="-471.4" r="19.6" transform="rotate(90 940.107 -471.423)"/><circle cx="995.2" cy="-563.2" r="19.6" transform="rotate(90 995.177 -563.206)"/><circle cx="1068.6" cy="-630.5" r="19.6" transform="rotate(90 1068.604 -630.513)"/></g><g transform="matrix(.034739 0 0 .034739 44.585177 -26.534788) rotate(68 8.592 57.854)"><circle cx="1498.6" cy="-461.8" r="19.6" transform="rotate(90 1498.575 -461.808)"/><circle cx="1509.1" cy="-546.2" r="19.6" transform="rotate(90 1509.124 -546.202)"/><circle cx="1488" cy="-641.1" r="19.6" transform="rotate(90 1488.026 -641.146)"/><circle cx="1440.6" cy="-725.5" r="19.6" transform="rotate(90 1440.554 -725.54)"/><circle cx="1372" cy="-783.6" r="19.6" transform="rotate(90 1371.984 -783.561)"/><circle cx="1292.9" cy="-820.5" r="19.6" transform="rotate(90 1292.864 -820.483)"/><circle cx="1197.9" cy="-836.3" r="19.6" transform="rotate(90 1197.921 -836.307)"/><circle cx="1108.3" cy="-820.5" r="19.6" transform="rotate(90 1108.252 -820.483)"/><circle cx="1461.7" cy="-372.1" r="19.6" transform="rotate(90 1461.652 -372.139)"/><circle cx="1408.9" cy="-298.3" r="19.6" transform="rotate(90 1408.906 -298.294)"/><circle cx="1329.8" cy="-245.5" r="19.6" transform="rotate(90 1329.786 -245.548)"/><circle cx="1245.4" cy="-219.2" r="19.6" transform="rotate(90 1245.392 -219.175)"/><circle cx="1150.4" cy="-224.4" r="19.6" transform="rotate(90 1150.449 -224.449)"/><circle cx="1071.3" cy="-250.8" r="19.6" transform="rotate(90 1071.329 -250.823)"/><circle cx="992.2" cy="-298.3" r="19.6" transform="rotate(90 992.21 -298.294)"/><circle cx="934.2" cy="-377.4" r="19.6" transform="rotate(90 934.189 -377.414)"/><circle cx="897.3" cy="-461.8" r="19.6" transform="rotate(90 897.266 -461.808)"/><circle cx="892" cy="-556.8" r="19.6" transform="rotate(90 891.991 -556.752)"/><circle cx="913.1" cy="-646.4" r="19.6" transform="rotate(90 913.09 -646.421)"/><circle cx="960.6" cy="-725.5" r="19.6" transform="rotate(90 960.562 -725.54)"/><circle cx="1023.9" cy="-783.6" r="19.6" transform="rotate(90 1023.858 -783.561)"/></g></g></g><style class="darkreader darkreader--fallback"/></svg>