<svg xmlns="http://www.w3.org/2000/svg" width="101" height="48" fill="none" viewBox="0 0 101 48"><path fill="url(#paint0_linear_1144_162225)" d="M0 1.04083V13H31V0H1.29545C0.951872 0 0.62237 0.109659 0.379427 0.304853C0.136484 0.500047 0 0.764787 0 1.04083Z"/><path fill="#84AFF1" d="M31 17H0V48H31V17Z"/><path fill="#24292E" d="M17 29.5H15.0954L13 30.7266V32.3984L14.9004 31.3047H14.9502V37.5H17V29.5Z"/><path fill="url(#paint1_linear_1144_162225)" d="M66 0H35V13H66V0Z"/><path fill="#84AFF1" d="M66 17H35V48H66V17Z"/><path fill="#24292E" d="M48.1164 37.5H54V35.9624H50.7788V35.9123L51.7296 35.0414C53.4528 33.5501 53.903 32.7909 53.903 31.8854C53.903 30.4634 52.7348 29.5 50.9301 29.5C49.1721 29.5 47.9961 30.5058 48 32.1127H49.8202C49.8202 31.3998 50.2626 30.9875 50.9224 30.9875C51.5705 30.9875 52.0401 31.3844 52.0401 32.0356C52.0401 32.6252 51.6675 33.026 51.0155 33.6079L48.1164 36.1281V37.5Z"/><path fill="url(#paint2_linear_1144_162225)" d="M70 13H101V1.04083C101 0.764787 100.864 0.500047 100.621 0.304853C100.378 0.109659 100.048 0 99.7046 0L70 0V13Z"/><path fill="#84AFF1" d="M101 17H70V48H101V17Z"/><path fill="#24292E" d="M78 29H76.0954L74 30.2266V31.8984L75.9004 30.8047H75.9502V37H78V29Z"/><path fill="#24292E" d="M90.1164 37H96V35.4624H92.7788V35.4123L93.7296 34.5414C95.4528 33.0501 95.903 32.2909 95.903 31.3854C95.903 29.9634 94.7348 29 92.9301 29C91.1721 29 89.9961 30.0058 90 31.6127H91.8202C91.8202 30.8998 92.2626 30.4875 92.9224 30.4875C93.5705 30.4875 94.0401 30.8844 94.0401 31.5356C94.0401 32.1252 93.6675 32.526 93.0155 33.1079L90.1164 35.6281V37Z"/><path fill="#24292E" d="M83.7432 36H85.2568V34.2568H87V32.7432H85.2568V31H83.7432V32.7432H82V34.2568H83.7432V36Z"/><defs><linearGradient id="paint0_linear_1144_162225" x1="0" x2="31" y1="6.505" y2="6.505" gradientUnits="userSpaceOnUse"><stop stop-color="#F2CC0C"/><stop offset="1" stop-color="#FF9830"/></linearGradient><linearGradient id="paint1_linear_1144_162225" x1="35" x2="66.013" y1="6.505" y2="6.505" gradientUnits="userSpaceOnUse"><stop stop-color="#F2CC0C"/><stop offset="1" stop-color="#FF9830"/></linearGradient><linearGradient id="paint2_linear_1144_162225" x1="70" x2="101" y1="6.505" y2="6.505" gradientUnits="userSpaceOnUse"><stop stop-color="#F2CC0C"/><stop offset="1" stop-color="#FF9830"/></linearGradient></defs></svg>