<svg xmlns="http://www.w3.org/2000/svg" xmlns:xlink="http://www.w3.org/1999/xlink" width="206" height="55" preserveAspectRatio="xMidYMid meet" version="1.0" viewBox="0 0 154.5 41.25" zoomAndPan="magnify"><defs><clipPath id="0cc78e9abe"><path d="M 2.78125 2.292969 L 19.722656 2.292969 L 19.722656 2.871094 L 2.78125 2.871094 Z M 2.78125 2.871094 L 19.722656 2.871094 L 19.722656 9.503906 L 2.78125 9.503906 Z M 2.78125 2.871094" clip-rule="nonzero"/></clipPath><linearGradient id="78f737bf82" x1="28.039" x2="51.412" y1="5.004" y2="5.004" gradientTransform="matrix(0.724848, 0, 0, 0.721261, -17.543196, 2.292546)" gradientUnits="userSpaceOnUse"><stop offset="0" stop-color="#F2CC0C" stop-opacity="1"/><stop offset=".016" stop-color="#F2CC0C" stop-opacity="1"/><stop offset=".031" stop-color="#F2CB0D" stop-opacity="1"/><stop offset=".047" stop-color="#F3CA0D" stop-opacity="1"/><stop offset=".063" stop-color="#F3C90E" stop-opacity="1"/><stop offset=".078" stop-color="#F3C80E" stop-opacity="1"/><stop offset=".094" stop-color="#F3C80F" stop-opacity="1"/><stop offset=".109" stop-color="#F3C710" stop-opacity="1"/><stop offset=".125" stop-color="#F3C610" stop-opacity="1"/><stop offset=".141" stop-color="#F4C511" stop-opacity="1"/><stop offset=".156" stop-color="#F4C411" stop-opacity="1"/><stop offset=".172" stop-color="#F4C412" stop-opacity="1"/><stop offset=".188" stop-color="#F4C312" stop-opacity="1"/><stop offset=".203" stop-color="#F4C213" stop-opacity="1"/><stop offset=".219" stop-color="#F5C113" stop-opacity="1"/><stop offset=".234" stop-color="#F5C014" stop-opacity="1"/><stop offset=".25" stop-color="#F5C015" stop-opacity="1"/><stop offset=".266" stop-color="#F5BF15" stop-opacity="1"/><stop offset=".281" stop-color="#F5BE16" stop-opacity="1"/><stop offset=".297" stop-color="#F6BD16" stop-opacity="1"/><stop offset=".313" stop-color="#F6BC17" stop-opacity="1"/><stop offset=".328" stop-color="#F6BC17" stop-opacity="1"/><stop offset=".344" stop-color="#F6BB18" stop-opacity="1"/><stop offset=".359" stop-color="#F6BA18" stop-opacity="1"/><stop offset=".375" stop-color="#F7B919" stop-opacity="1"/><stop offset=".391" stop-color="#F7B919" stop-opacity="1"/><stop offset=".406" stop-color="#F7B81A" stop-opacity="1"/><stop offset=".422" stop-color="#F7B71B" stop-opacity="1"/><stop offset=".438" stop-color="#F7B61B" stop-opacity="1"/><stop offset=".453" stop-color="#F8B51C" stop-opacity="1"/><stop offset=".469" stop-color="#F8B51C" stop-opacity="1"/><stop offset=".484" stop-color="#F8B41D" stop-opacity="1"/><stop offset=".5" stop-color="#F8B31D" stop-opacity="1"/><stop offset=".516" stop-color="#F8B21E" stop-opacity="1"/><stop offset=".531" stop-color="#F9B11E" stop-opacity="1"/><stop offset=".547" stop-color="#F9B11F" stop-opacity="1"/><stop offset=".563" stop-color="#F9B01F" stop-opacity="1"/><stop offset=".578" stop-color="#F9AF20" stop-opacity="1"/><stop offset=".594" stop-color="#F9AE21" stop-opacity="1"/><stop offset=".609" stop-color="#FAAD21" stop-opacity="1"/><stop offset=".625" stop-color="#FAAD22" stop-opacity="1"/><stop offset=".641" stop-color="#FAAC22" stop-opacity="1"/><stop offset=".656" stop-color="#FAAB23" stop-opacity="1"/><stop offset=".672" stop-color="#FAAA23" stop-opacity="1"/><stop offset=".688" stop-color="#FBA924" stop-opacity="1"/><stop offset=".703" stop-color="#FBA924" stop-opacity="1"/><stop offset=".719" stop-color="#FBA825" stop-opacity="1"/><stop offset=".734" stop-color="#FBA725" stop-opacity="1"/><stop offset=".75" stop-color="#FBA626" stop-opacity="1"/><stop offset=".766" stop-color="#FCA627" stop-opacity="1"/><stop offset=".781" stop-color="#FCA527" stop-opacity="1"/><stop offset=".797" stop-color="#FCA428" stop-opacity="1"/><stop offset=".813" stop-color="#FCA328" stop-opacity="1"/><stop offset=".828" stop-color="#FCA229" stop-opacity="1"/><stop offset=".844" stop-color="#FDA229" stop-opacity="1"/><stop offset=".859" stop-color="#FDA12A" stop-opacity="1"/><stop offset=".875" stop-color="#FDA02A" stop-opacity="1"/><stop offset=".891" stop-color="#FD9F2B" stop-opacity="1"/><stop offset=".906" stop-color="#FD9E2B" stop-opacity="1"/><stop offset=".922" stop-color="#FE9E2C" stop-opacity="1"/><stop offset=".938" stop-color="#FE9D2D" stop-opacity="1"/><stop offset=".953" stop-color="#FE9C2D" stop-opacity="1"/><stop offset=".969" stop-color="#FE9B2E" stop-opacity="1"/><stop offset=".984" stop-color="#FE9A2E" stop-opacity="1"/><stop offset="1" stop-color="#FF9A2F" stop-opacity="1"/></linearGradient><clipPath id="59741fc677"><path d="M 2.78125 12.085938 L 19.722656 12.085938 L 19.722656 12.664062 L 2.78125 12.664062 Z M 2.78125 12.664062 L 19.722656 12.664062 L 19.722656 19.300781 L 2.78125 19.300781 Z M 2.78125 12.664062" clip-rule="nonzero"/></clipPath><linearGradient id="8b36d8a32c" x1="28.039" x2="51.412" y1="5.004" y2="5.004" gradientTransform="matrix(0.724848, 0, 0, 0.721261, -17.543196, 12.086858)" gradientUnits="userSpaceOnUse"><stop offset="0" stop-color="#F2CC0C" stop-opacity="1"/><stop offset=".016" stop-color="#F2CC0C" stop-opacity="1"/><stop offset=".031" stop-color="#F2CB0D" stop-opacity="1"/><stop offset=".047" stop-color="#F3CA0D" stop-opacity="1"/><stop offset=".063" stop-color="#F3C90E" stop-opacity="1"/><stop offset=".078" stop-color="#F3C80E" stop-opacity="1"/><stop offset=".094" stop-color="#F3C80F" stop-opacity="1"/><stop offset=".109" stop-color="#F3C710" stop-opacity="1"/><stop offset=".125" stop-color="#F3C610" stop-opacity="1"/><stop offset=".141" stop-color="#F4C511" stop-opacity="1"/><stop offset=".156" stop-color="#F4C411" stop-opacity="1"/><stop offset=".172" stop-color="#F4C412" stop-opacity="1"/><stop offset=".188" stop-color="#F4C312" stop-opacity="1"/><stop offset=".203" stop-color="#F4C213" stop-opacity="1"/><stop offset=".219" stop-color="#F5C113" stop-opacity="1"/><stop offset=".234" stop-color="#F5C014" stop-opacity="1"/><stop offset=".25" stop-color="#F5C015" stop-opacity="1"/><stop offset=".266" stop-color="#F5BF15" stop-opacity="1"/><stop offset=".281" stop-color="#F5BE16" stop-opacity="1"/><stop offset=".297" stop-color="#F6BD16" stop-opacity="1"/><stop offset=".313" stop-color="#F6BC17" stop-opacity="1"/><stop offset=".328" stop-color="#F6BC17" stop-opacity="1"/><stop offset=".344" stop-color="#F6BB18" stop-opacity="1"/><stop offset=".359" stop-color="#F6BA18" stop-opacity="1"/><stop offset=".375" stop-color="#F7B919" stop-opacity="1"/><stop offset=".391" stop-color="#F7B919" stop-opacity="1"/><stop offset=".406" stop-color="#F7B81A" stop-opacity="1"/><stop offset=".422" stop-color="#F7B71B" stop-opacity="1"/><stop offset=".438" stop-color="#F7B61B" stop-opacity="1"/><stop offset=".453" stop-color="#F8B51C" stop-opacity="1"/><stop offset=".469" stop-color="#F8B51C" stop-opacity="1"/><stop offset=".484" stop-color="#F8B41D" stop-opacity="1"/><stop offset=".5" stop-color="#F8B31D" stop-opacity="1"/><stop offset=".516" stop-color="#F8B21E" stop-opacity="1"/><stop offset=".531" stop-color="#F9B11E" stop-opacity="1"/><stop offset=".547" stop-color="#F9B11F" stop-opacity="1"/><stop offset=".563" stop-color="#F9B01F" stop-opacity="1"/><stop offset=".578" stop-color="#F9AF20" stop-opacity="1"/><stop offset=".594" stop-color="#F9AE21" stop-opacity="1"/><stop offset=".609" stop-color="#FAAD21" stop-opacity="1"/><stop offset=".625" stop-color="#FAAD22" stop-opacity="1"/><stop offset=".641" stop-color="#FAAC22" stop-opacity="1"/><stop offset=".656" stop-color="#FAAB23" stop-opacity="1"/><stop offset=".672" stop-color="#FAAA23" stop-opacity="1"/><stop offset=".688" stop-color="#FBA924" stop-opacity="1"/><stop offset=".703" stop-color="#FBA924" stop-opacity="1"/><stop offset=".719" stop-color="#FBA825" stop-opacity="1"/><stop offset=".734" stop-color="#FBA725" stop-opacity="1"/><stop offset=".75" stop-color="#FBA626" stop-opacity="1"/><stop offset=".766" stop-color="#FCA627" stop-opacity="1"/><stop offset=".781" stop-color="#FCA527" stop-opacity="1"/><stop offset=".797" stop-color="#FCA428" stop-opacity="1"/><stop offset=".813" stop-color="#FCA328" stop-opacity="1"/><stop offset=".828" stop-color="#FCA229" stop-opacity="1"/><stop offset=".844" stop-color="#FDA229" stop-opacity="1"/><stop offset=".859" stop-color="#FDA12A" stop-opacity="1"/><stop offset=".875" stop-color="#FDA02A" stop-opacity="1"/><stop offset=".891" stop-color="#FD9F2B" stop-opacity="1"/><stop offset=".906" stop-color="#FD9E2B" stop-opacity="1"/><stop offset=".922" stop-color="#FE9E2C" stop-opacity="1"/><stop offset=".938" stop-color="#FE9D2D" stop-opacity="1"/><stop offset=".953" stop-color="#FE9C2D" stop-opacity="1"/><stop offset=".969" stop-color="#FE9B2E" stop-opacity="1"/><stop offset=".984" stop-color="#FE9A2E" stop-opacity="1"/><stop offset="1" stop-color="#FF9A2F" stop-opacity="1"/></linearGradient><clipPath id="4f935a79b9"><path d="M 2.78125 21.726562 L 19.722656 21.726562 L 19.722656 22.304688 L 2.78125 22.304688 Z M 2.78125 22.304688 L 19.722656 22.304688 L 19.722656 28.941406 L 2.78125 28.941406 Z M 2.78125 22.304688" clip-rule="nonzero"/></clipPath><linearGradient id="f2c0bb83c0" x1="28.039" x2="51.412" y1="5.004" y2="5.004" gradientTransform="matrix(0.724848, 0, 0, 0.721261, -17.543196, 21.72763)" gradientUnits="userSpaceOnUse"><stop offset="0" stop-color="#F2CC0C" stop-opacity="1"/><stop offset=".016" stop-color="#F2CC0C" stop-opacity="1"/><stop offset=".031" stop-color="#F2CB0D" stop-opacity="1"/><stop offset=".047" stop-color="#F3CA0D" stop-opacity="1"/><stop offset=".063" stop-color="#F3C90E" stop-opacity="1"/><stop offset=".078" stop-color="#F3C80E" stop-opacity="1"/><stop offset=".094" stop-color="#F3C80F" stop-opacity="1"/><stop offset=".109" stop-color="#F3C710" stop-opacity="1"/><stop offset=".125" stop-color="#F3C610" stop-opacity="1"/><stop offset=".141" stop-color="#F4C511" stop-opacity="1"/><stop offset=".156" stop-color="#F4C411" stop-opacity="1"/><stop offset=".172" stop-color="#F4C412" stop-opacity="1"/><stop offset=".188" stop-color="#F4C312" stop-opacity="1"/><stop offset=".203" stop-color="#F4C213" stop-opacity="1"/><stop offset=".219" stop-color="#F5C113" stop-opacity="1"/><stop offset=".234" stop-color="#F5C014" stop-opacity="1"/><stop offset=".25" stop-color="#F5C015" stop-opacity="1"/><stop offset=".266" stop-color="#F5BF15" stop-opacity="1"/><stop offset=".281" stop-color="#F5BE16" stop-opacity="1"/><stop offset=".297" stop-color="#F6BD16" stop-opacity="1"/><stop offset=".313" stop-color="#F6BC17" stop-opacity="1"/><stop offset=".328" stop-color="#F6BC17" stop-opacity="1"/><stop offset=".344" stop-color="#F6BB18" stop-opacity="1"/><stop offset=".359" stop-color="#F6BA18" stop-opacity="1"/><stop offset=".375" stop-color="#F7B919" stop-opacity="1"/><stop offset=".391" stop-color="#F7B919" stop-opacity="1"/><stop offset=".406" stop-color="#F7B81A" stop-opacity="1"/><stop offset=".422" stop-color="#F7B71B" stop-opacity="1"/><stop offset=".438" stop-color="#F7B61B" stop-opacity="1"/><stop offset=".453" stop-color="#F8B51C" stop-opacity="1"/><stop offset=".469" stop-color="#F8B51C" stop-opacity="1"/><stop offset=".484" stop-color="#F8B41D" stop-opacity="1"/><stop offset=".5" stop-color="#F8B31D" stop-opacity="1"/><stop offset=".516" stop-color="#F8B21E" stop-opacity="1"/><stop offset=".531" stop-color="#F9B11E" stop-opacity="1"/><stop offset=".547" stop-color="#F9B11F" stop-opacity="1"/><stop offset=".563" stop-color="#F9B01F" stop-opacity="1"/><stop offset=".578" stop-color="#F9AF20" stop-opacity="1"/><stop offset=".594" stop-color="#F9AE21" stop-opacity="1"/><stop offset=".609" stop-color="#FAAD21" stop-opacity="1"/><stop offset=".625" stop-color="#FAAD22" stop-opacity="1"/><stop offset=".641" stop-color="#FAAC22" stop-opacity="1"/><stop offset=".656" stop-color="#FAAB23" stop-opacity="1"/><stop offset=".672" stop-color="#FAAA23" stop-opacity="1"/><stop offset=".688" stop-color="#FBA924" stop-opacity="1"/><stop offset=".703" stop-color="#FBA924" stop-opacity="1"/><stop offset=".719" stop-color="#FBA825" stop-opacity="1"/><stop offset=".734" stop-color="#FBA725" stop-opacity="1"/><stop offset=".75" stop-color="#FBA626" stop-opacity="1"/><stop offset=".766" stop-color="#FCA627" stop-opacity="1"/><stop offset=".781" stop-color="#FCA527" stop-opacity="1"/><stop offset=".797" stop-color="#FCA428" stop-opacity="1"/><stop offset=".813" stop-color="#FCA328" stop-opacity="1"/><stop offset=".828" stop-color="#FCA229" stop-opacity="1"/><stop offset=".844" stop-color="#FDA229" stop-opacity="1"/><stop offset=".859" stop-color="#FDA12A" stop-opacity="1"/><stop offset=".875" stop-color="#FDA02A" stop-opacity="1"/><stop offset=".891" stop-color="#FD9F2B" stop-opacity="1"/><stop offset=".906" stop-color="#FD9E2B" stop-opacity="1"/><stop offset=".922" stop-color="#FE9E2C" stop-opacity="1"/><stop offset=".938" stop-color="#FE9D2D" stop-opacity="1"/><stop offset=".953" stop-color="#FE9C2D" stop-opacity="1"/><stop offset=".969" stop-color="#FE9B2E" stop-opacity="1"/><stop offset=".984" stop-color="#FE9A2E" stop-opacity="1"/><stop offset="1" stop-color="#FF9A2F" stop-opacity="1"/></linearGradient><clipPath id="8400dc1f64"><path d="M 2.78125 31.367188 L 19.722656 31.367188 L 19.722656 31.945312 L 2.78125 31.945312 Z M 2.78125 31.945312 L 19.722656 31.945312 L 19.722656 38.582031 L 2.78125 38.582031 Z M 2.78125 31.945312" clip-rule="nonzero"/></clipPath><linearGradient id="e73fefaf04" x1="28.039" x2="51.412" y1="5.004" y2="5.004" gradientTransform="matrix(0.724848, 0, 0, 0.721261, -17.543196, 31.368404)" gradientUnits="userSpaceOnUse"><stop offset="0" stop-color="#F2CC0C" stop-opacity="1"/><stop offset=".016" stop-color="#F2CC0C" stop-opacity="1"/><stop offset=".031" stop-color="#F2CB0D" stop-opacity="1"/><stop offset=".047" stop-color="#F3CA0D" stop-opacity="1"/><stop offset=".063" stop-color="#F3C90E" stop-opacity="1"/><stop offset=".078" stop-color="#F3C80E" stop-opacity="1"/><stop offset=".094" stop-color="#F3C80F" stop-opacity="1"/><stop offset=".109" stop-color="#F3C710" stop-opacity="1"/><stop offset=".125" stop-color="#F3C610" stop-opacity="1"/><stop offset=".141" stop-color="#F4C511" stop-opacity="1"/><stop offset=".156" stop-color="#F4C411" stop-opacity="1"/><stop offset=".172" stop-color="#F4C412" stop-opacity="1"/><stop offset=".188" stop-color="#F4C312" stop-opacity="1"/><stop offset=".203" stop-color="#F4C213" stop-opacity="1"/><stop offset=".219" stop-color="#F5C113" stop-opacity="1"/><stop offset=".234" stop-color="#F5C014" stop-opacity="1"/><stop offset=".25" stop-color="#F5C015" stop-opacity="1"/><stop offset=".266" stop-color="#F5BF15" stop-opacity="1"/><stop offset=".281" stop-color="#F5BE16" stop-opacity="1"/><stop offset=".297" stop-color="#F6BD16" stop-opacity="1"/><stop offset=".313" stop-color="#F6BC17" stop-opacity="1"/><stop offset=".328" stop-color="#F6BC17" stop-opacity="1"/><stop offset=".344" stop-color="#F6BB18" stop-opacity="1"/><stop offset=".359" stop-color="#F6BA18" stop-opacity="1"/><stop offset=".375" stop-color="#F7B919" stop-opacity="1"/><stop offset=".391" stop-color="#F7B919" stop-opacity="1"/><stop offset=".406" stop-color="#F7B81A" stop-opacity="1"/><stop offset=".422" stop-color="#F7B71B" stop-opacity="1"/><stop offset=".438" stop-color="#F7B61B" stop-opacity="1"/><stop offset=".453" stop-color="#F8B51C" stop-opacity="1"/><stop offset=".469" stop-color="#F8B51C" stop-opacity="1"/><stop offset=".484" stop-color="#F8B41D" stop-opacity="1"/><stop offset=".5" stop-color="#F8B31D" stop-opacity="1"/><stop offset=".516" stop-color="#F8B21E" stop-opacity="1"/><stop offset=".531" stop-color="#F9B11E" stop-opacity="1"/><stop offset=".547" stop-color="#F9B11F" stop-opacity="1"/><stop offset=".563" stop-color="#F9B01F" stop-opacity="1"/><stop offset=".578" stop-color="#F9AF20" stop-opacity="1"/><stop offset=".594" stop-color="#F9AE21" stop-opacity="1"/><stop offset=".609" stop-color="#FAAD21" stop-opacity="1"/><stop offset=".625" stop-color="#FAAD22" stop-opacity="1"/><stop offset=".641" stop-color="#FAAC22" stop-opacity="1"/><stop offset=".656" stop-color="#FAAB23" stop-opacity="1"/><stop offset=".672" stop-color="#FAAA23" stop-opacity="1"/><stop offset=".688" stop-color="#FBA924" stop-opacity="1"/><stop offset=".703" stop-color="#FBA924" stop-opacity="1"/><stop offset=".719" stop-color="#FBA825" stop-opacity="1"/><stop offset=".734" stop-color="#FBA725" stop-opacity="1"/><stop offset=".75" stop-color="#FBA626" stop-opacity="1"/><stop offset=".766" stop-color="#FCA627" stop-opacity="1"/><stop offset=".781" stop-color="#FCA527" stop-opacity="1"/><stop offset=".797" stop-color="#FCA428" stop-opacity="1"/><stop offset=".813" stop-color="#FCA328" stop-opacity="1"/><stop offset=".828" stop-color="#FCA229" stop-opacity="1"/><stop offset=".844" stop-color="#FDA229" stop-opacity="1"/><stop offset=".859" stop-color="#FDA12A" stop-opacity="1"/><stop offset=".875" stop-color="#FDA02A" stop-opacity="1"/><stop offset=".891" stop-color="#FD9F2B" stop-opacity="1"/><stop offset=".906" stop-color="#FD9E2B" stop-opacity="1"/><stop offset=".922" stop-color="#FE9E2C" stop-opacity="1"/><stop offset=".938" stop-color="#FE9D2D" stop-opacity="1"/><stop offset=".953" stop-color="#FE9C2D" stop-opacity="1"/><stop offset=".969" stop-color="#FE9B2E" stop-opacity="1"/><stop offset=".984" stop-color="#FE9A2E" stop-opacity="1"/><stop offset="1" stop-color="#FF9A2F" stop-opacity="1"/></linearGradient><clipPath id="f01163ac74"><path d="M 23.167969 2.292969 L 40.109375 2.292969 L 40.109375 2.871094 L 23.167969 2.871094 Z M 23.167969 2.871094 L 40.109375 2.871094 L 40.109375 9.503906 L 23.167969 9.503906 Z M 23.167969 2.871094" clip-rule="nonzero"/></clipPath><linearGradient id="b1fb89d5c4" x1="28.039" x2="51.412" y1="5.004" y2="5.004" gradientTransform="matrix(0.724848, 0, 0, 0.721261, 2.844588, 2.292546)" gradientUnits="userSpaceOnUse"><stop offset="0" stop-color="#F2CC0C" stop-opacity="1"/><stop offset=".016" stop-color="#F2CC0C" stop-opacity="1"/><stop offset=".031" stop-color="#F2CB0D" stop-opacity="1"/><stop offset=".047" stop-color="#F3CA0D" stop-opacity="1"/><stop offset=".063" stop-color="#F3C90E" stop-opacity="1"/><stop offset=".078" stop-color="#F3C80E" stop-opacity="1"/><stop offset=".094" stop-color="#F3C80F" stop-opacity="1"/><stop offset=".109" stop-color="#F3C710" stop-opacity="1"/><stop offset=".125" stop-color="#F3C610" stop-opacity="1"/><stop offset=".141" stop-color="#F4C511" stop-opacity="1"/><stop offset=".156" stop-color="#F4C411" stop-opacity="1"/><stop offset=".172" stop-color="#F4C412" stop-opacity="1"/><stop offset=".188" stop-color="#F4C312" stop-opacity="1"/><stop offset=".203" stop-color="#F4C213" stop-opacity="1"/><stop offset=".219" stop-color="#F5C113" stop-opacity="1"/><stop offset=".234" stop-color="#F5C014" stop-opacity="1"/><stop offset=".25" stop-color="#F5C015" stop-opacity="1"/><stop offset=".266" stop-color="#F5BF15" stop-opacity="1"/><stop offset=".281" stop-color="#F5BE16" stop-opacity="1"/><stop offset=".297" stop-color="#F6BD16" stop-opacity="1"/><stop offset=".313" stop-color="#F6BC17" stop-opacity="1"/><stop offset=".328" stop-color="#F6BC17" stop-opacity="1"/><stop offset=".344" stop-color="#F6BB18" stop-opacity="1"/><stop offset=".359" stop-color="#F6BA18" stop-opacity="1"/><stop offset=".375" stop-color="#F7B919" stop-opacity="1"/><stop offset=".391" stop-color="#F7B919" stop-opacity="1"/><stop offset=".406" stop-color="#F7B81A" stop-opacity="1"/><stop offset=".422" stop-color="#F7B71B" stop-opacity="1"/><stop offset=".438" stop-color="#F7B61B" stop-opacity="1"/><stop offset=".453" stop-color="#F8B51C" stop-opacity="1"/><stop offset=".469" stop-color="#F8B51C" stop-opacity="1"/><stop offset=".484" stop-color="#F8B41D" stop-opacity="1"/><stop offset=".5" stop-color="#F8B31D" stop-opacity="1"/><stop offset=".516" stop-color="#F8B21E" stop-opacity="1"/><stop offset=".531" stop-color="#F9B11E" stop-opacity="1"/><stop offset=".547" stop-color="#F9B11F" stop-opacity="1"/><stop offset=".563" stop-color="#F9B01F" stop-opacity="1"/><stop offset=".578" stop-color="#F9AF20" stop-opacity="1"/><stop offset=".594" stop-color="#F9AE21" stop-opacity="1"/><stop offset=".609" stop-color="#FAAD21" stop-opacity="1"/><stop offset=".625" stop-color="#FAAD22" stop-opacity="1"/><stop offset=".641" stop-color="#FAAC22" stop-opacity="1"/><stop offset=".656" stop-color="#FAAB23" stop-opacity="1"/><stop offset=".672" stop-color="#FAAA23" stop-opacity="1"/><stop offset=".688" stop-color="#FBA924" stop-opacity="1"/><stop offset=".703" stop-color="#FBA924" stop-opacity="1"/><stop offset=".719" stop-color="#FBA825" stop-opacity="1"/><stop offset=".734" stop-color="#FBA725" stop-opacity="1"/><stop offset=".75" stop-color="#FBA626" stop-opacity="1"/><stop offset=".766" stop-color="#FCA627" stop-opacity="1"/><stop offset=".781" stop-color="#FCA527" stop-opacity="1"/><stop offset=".797" stop-color="#FCA428" stop-opacity="1"/><stop offset=".813" stop-color="#FCA328" stop-opacity="1"/><stop offset=".828" stop-color="#FCA229" stop-opacity="1"/><stop offset=".844" stop-color="#FDA229" stop-opacity="1"/><stop offset=".859" stop-color="#FDA12A" stop-opacity="1"/><stop offset=".875" stop-color="#FDA02A" stop-opacity="1"/><stop offset=".891" stop-color="#FD9F2B" stop-opacity="1"/><stop offset=".906" stop-color="#FD9E2B" stop-opacity="1"/><stop offset=".922" stop-color="#FE9E2C" stop-opacity="1"/><stop offset=".938" stop-color="#FE9D2D" stop-opacity="1"/><stop offset=".953" stop-color="#FE9C2D" stop-opacity="1"/><stop offset=".969" stop-color="#FE9B2E" stop-opacity="1"/><stop offset=".984" stop-color="#FE9A2E" stop-opacity="1"/><stop offset="1" stop-color="#FF9A2F" stop-opacity="1"/></linearGradient><clipPath id="5b0ecc485e"><path d="M 43.5625 2.292969 L 60.503906 2.292969 L 60.503906 2.871094 L 43.5625 2.871094 Z M 43.5625 2.871094 L 60.503906 2.871094 L 60.503906 9.503906 L 43.5625 9.503906 Z M 43.5625 2.871094" clip-rule="nonzero"/></clipPath><linearGradient id="c5b211b06c" x1="28.039" x2="51.412" y1="5.004" y2="5.004" gradientTransform="matrix(0.724848, 0, 0, 0.721261, 23.236872, 2.292546)" gradientUnits="userSpaceOnUse"><stop offset="0" stop-color="#F2CC0C" stop-opacity="1"/><stop offset=".016" stop-color="#F2CC0C" stop-opacity="1"/><stop offset=".031" stop-color="#F2CB0D" stop-opacity="1"/><stop offset=".047" stop-color="#F3CA0D" stop-opacity="1"/><stop offset=".063" stop-color="#F3C90E" stop-opacity="1"/><stop offset=".078" stop-color="#F3C80E" stop-opacity="1"/><stop offset=".094" stop-color="#F3C80F" stop-opacity="1"/><stop offset=".109" stop-color="#F3C710" stop-opacity="1"/><stop offset=".125" stop-color="#F3C610" stop-opacity="1"/><stop offset=".141" stop-color="#F4C511" stop-opacity="1"/><stop offset=".156" stop-color="#F4C411" stop-opacity="1"/><stop offset=".172" stop-color="#F4C412" stop-opacity="1"/><stop offset=".188" stop-color="#F4C312" stop-opacity="1"/><stop offset=".203" stop-color="#F4C213" stop-opacity="1"/><stop offset=".219" stop-color="#F5C113" stop-opacity="1"/><stop offset=".234" stop-color="#F5C014" stop-opacity="1"/><stop offset=".25" stop-color="#F5C015" stop-opacity="1"/><stop offset=".266" stop-color="#F5BF15" stop-opacity="1"/><stop offset=".281" stop-color="#F5BE16" stop-opacity="1"/><stop offset=".297" stop-color="#F6BD16" stop-opacity="1"/><stop offset=".313" stop-color="#F6BC17" stop-opacity="1"/><stop offset=".328" stop-color="#F6BC17" stop-opacity="1"/><stop offset=".344" stop-color="#F6BB18" stop-opacity="1"/><stop offset=".359" stop-color="#F6BA18" stop-opacity="1"/><stop offset=".375" stop-color="#F7B919" stop-opacity="1"/><stop offset=".391" stop-color="#F7B919" stop-opacity="1"/><stop offset=".406" stop-color="#F7B81A" stop-opacity="1"/><stop offset=".422" stop-color="#F7B71B" stop-opacity="1"/><stop offset=".438" stop-color="#F7B61B" stop-opacity="1"/><stop offset=".453" stop-color="#F8B51C" stop-opacity="1"/><stop offset=".469" stop-color="#F8B51C" stop-opacity="1"/><stop offset=".484" stop-color="#F8B41D" stop-opacity="1"/><stop offset=".5" stop-color="#F8B31D" stop-opacity="1"/><stop offset=".516" stop-color="#F8B21E" stop-opacity="1"/><stop offset=".531" stop-color="#F9B11E" stop-opacity="1"/><stop offset=".547" stop-color="#F9B11F" stop-opacity="1"/><stop offset=".563" stop-color="#F9B01F" stop-opacity="1"/><stop offset=".578" stop-color="#F9AF20" stop-opacity="1"/><stop offset=".594" stop-color="#F9AE21" stop-opacity="1"/><stop offset=".609" stop-color="#FAAD21" stop-opacity="1"/><stop offset=".625" stop-color="#FAAD22" stop-opacity="1"/><stop offset=".641" stop-color="#FAAC22" stop-opacity="1"/><stop offset=".656" stop-color="#FAAB23" stop-opacity="1"/><stop offset=".672" stop-color="#FAAA23" stop-opacity="1"/><stop offset=".688" stop-color="#FBA924" stop-opacity="1"/><stop offset=".703" stop-color="#FBA924" stop-opacity="1"/><stop offset=".719" stop-color="#FBA825" stop-opacity="1"/><stop offset=".734" stop-color="#FBA725" stop-opacity="1"/><stop offset=".75" stop-color="#FBA626" stop-opacity="1"/><stop offset=".766" stop-color="#FCA627" stop-opacity="1"/><stop offset=".781" stop-color="#FCA527" stop-opacity="1"/><stop offset=".797" stop-color="#FCA428" stop-opacity="1"/><stop offset=".813" stop-color="#FCA328" stop-opacity="1"/><stop offset=".828" stop-color="#FCA229" stop-opacity="1"/><stop offset=".844" stop-color="#FDA229" stop-opacity="1"/><stop offset=".859" stop-color="#FDA12A" stop-opacity="1"/><stop offset=".875" stop-color="#FDA02A" stop-opacity="1"/><stop offset=".891" stop-color="#FD9F2B" stop-opacity="1"/><stop offset=".906" stop-color="#FD9E2B" stop-opacity="1"/><stop offset=".922" stop-color="#FE9E2C" stop-opacity="1"/><stop offset=".938" stop-color="#FE9D2D" stop-opacity="1"/><stop offset=".953" stop-color="#FE9C2D" stop-opacity="1"/><stop offset=".969" stop-color="#FE9B2E" stop-opacity="1"/><stop offset=".984" stop-color="#FE9A2E" stop-opacity="1"/><stop offset="1" stop-color="#FF9A2F" stop-opacity="1"/></linearGradient><clipPath id="7286542c60"><path d="M 23.128906 12.273438 L 40.046875 12.273438 L 40.046875 18.902344 L 23.128906 18.902344 Z M 23.128906 12.273438" clip-rule="nonzero"/></clipPath><clipPath id="1fa2f29718"><path d="M 43.523438 12.273438 L 60.441406 12.273438 L 60.441406 18.902344 L 43.523438 18.902344 Z M 43.523438 12.273438" clip-rule="nonzero"/></clipPath><clipPath id="c94678cc51"><path d="M 23.191406 22.042969 L 40.109375 22.042969 L 40.109375 28.671875 L 23.191406 28.671875 Z M 23.191406 22.042969" clip-rule="nonzero"/></clipPath><clipPath id="e9a287e80a"><path d="M 43.648438 22.042969 L 60.566406 22.042969 L 60.566406 28.671875 L 43.648438 28.671875 Z M 43.648438 22.042969" clip-rule="nonzero"/></clipPath><clipPath id="a7d27cb965"><path d="M 23.191406 31.367188 L 40.109375 31.367188 L 40.109375 37.996094 L 23.191406 37.996094 Z M 23.191406 31.367188" clip-rule="nonzero"/></clipPath><clipPath id="c25dc36c8d"><path d="M 43.585938 31.367188 L 60.503906 31.367188 L 60.503906 37.996094 L 43.585938 37.996094 Z M 43.585938 31.367188" clip-rule="nonzero"/></clipPath><clipPath id="6ef4945aae"><path d="M 72.824219 8.578125 L 89.765625 8.578125 L 89.765625 9.152344 L 72.824219 9.152344 Z M 72.824219 9.152344 L 89.765625 9.152344 L 89.765625 15.789062 L 72.824219 15.789062 Z M 72.824219 9.152344" clip-rule="nonzero"/></clipPath><linearGradient id="24823a5bb5" x1="28.039" x2="51.412" y1="5.004" y2="5.004" gradientTransform="matrix(0.724848, 0, 0, 0.721261, 52.501412, 8.576231)" gradientUnits="userSpaceOnUse"><stop offset="0" stop-color="#F2CC0C" stop-opacity="1"/><stop offset=".016" stop-color="#F2CC0C" stop-opacity="1"/><stop offset=".031" stop-color="#F2CB0D" stop-opacity="1"/><stop offset=".047" stop-color="#F3CA0D" stop-opacity="1"/><stop offset=".063" stop-color="#F3C90E" stop-opacity="1"/><stop offset=".078" stop-color="#F3C80E" stop-opacity="1"/><stop offset=".094" stop-color="#F3C80F" stop-opacity="1"/><stop offset=".109" stop-color="#F3C710" stop-opacity="1"/><stop offset=".125" stop-color="#F3C610" stop-opacity="1"/><stop offset=".141" stop-color="#F4C511" stop-opacity="1"/><stop offset=".156" stop-color="#F4C411" stop-opacity="1"/><stop offset=".172" stop-color="#F4C412" stop-opacity="1"/><stop offset=".188" stop-color="#F4C312" stop-opacity="1"/><stop offset=".203" stop-color="#F4C213" stop-opacity="1"/><stop offset=".219" stop-color="#F5C113" stop-opacity="1"/><stop offset=".234" stop-color="#F5C014" stop-opacity="1"/><stop offset=".25" stop-color="#F5C015" stop-opacity="1"/><stop offset=".266" stop-color="#F5BF15" stop-opacity="1"/><stop offset=".281" stop-color="#F5BE16" stop-opacity="1"/><stop offset=".297" stop-color="#F6BD16" stop-opacity="1"/><stop offset=".313" stop-color="#F6BC17" stop-opacity="1"/><stop offset=".328" stop-color="#F6BC17" stop-opacity="1"/><stop offset=".344" stop-color="#F6BB18" stop-opacity="1"/><stop offset=".359" stop-color="#F6BA18" stop-opacity="1"/><stop offset=".375" stop-color="#F7B919" stop-opacity="1"/><stop offset=".391" stop-color="#F7B919" stop-opacity="1"/><stop offset=".406" stop-color="#F7B81A" stop-opacity="1"/><stop offset=".422" stop-color="#F7B71B" stop-opacity="1"/><stop offset=".438" stop-color="#F7B61B" stop-opacity="1"/><stop offset=".453" stop-color="#F8B51C" stop-opacity="1"/><stop offset=".469" stop-color="#F8B51C" stop-opacity="1"/><stop offset=".484" stop-color="#F8B41D" stop-opacity="1"/><stop offset=".5" stop-color="#F8B31D" stop-opacity="1"/><stop offset=".516" stop-color="#F8B21E" stop-opacity="1"/><stop offset=".531" stop-color="#F9B11E" stop-opacity="1"/><stop offset=".547" stop-color="#F9B11F" stop-opacity="1"/><stop offset=".563" stop-color="#F9B01F" stop-opacity="1"/><stop offset=".578" stop-color="#F9AF20" stop-opacity="1"/><stop offset=".594" stop-color="#F9AE21" stop-opacity="1"/><stop offset=".609" stop-color="#FAAD21" stop-opacity="1"/><stop offset=".625" stop-color="#FAAD22" stop-opacity="1"/><stop offset=".641" stop-color="#FAAC22" stop-opacity="1"/><stop offset=".656" stop-color="#FAAB23" stop-opacity="1"/><stop offset=".672" stop-color="#FAAA23" stop-opacity="1"/><stop offset=".688" stop-color="#FBA924" stop-opacity="1"/><stop offset=".703" stop-color="#FBA924" stop-opacity="1"/><stop offset=".719" stop-color="#FBA825" stop-opacity="1"/><stop offset=".734" stop-color="#FBA725" stop-opacity="1"/><stop offset=".75" stop-color="#FBA626" stop-opacity="1"/><stop offset=".766" stop-color="#FCA627" stop-opacity="1"/><stop offset=".781" stop-color="#FCA527" stop-opacity="1"/><stop offset=".797" stop-color="#FCA428" stop-opacity="1"/><stop offset=".813" stop-color="#FCA328" stop-opacity="1"/><stop offset=".828" stop-color="#FCA229" stop-opacity="1"/><stop offset=".844" stop-color="#FDA229" stop-opacity="1"/><stop offset=".859" stop-color="#FDA12A" stop-opacity="1"/><stop offset=".875" stop-color="#FDA02A" stop-opacity="1"/><stop offset=".891" stop-color="#FD9F2B" stop-opacity="1"/><stop offset=".906" stop-color="#FD9E2B" stop-opacity="1"/><stop offset=".922" stop-color="#FE9E2C" stop-opacity="1"/><stop offset=".938" stop-color="#FE9D2D" stop-opacity="1"/><stop offset=".953" stop-color="#FE9C2D" stop-opacity="1"/><stop offset=".969" stop-color="#FE9B2E" stop-opacity="1"/><stop offset=".984" stop-color="#FE9A2E" stop-opacity="1"/><stop offset="1" stop-color="#FF9A2F" stop-opacity="1"/></linearGradient><clipPath id="db6204473f"><path d="M 72.824219 18.371094 L 89.765625 18.371094 L 89.765625 18.949219 L 72.824219 18.949219 Z M 72.824219 18.949219 L 89.765625 18.949219 L 89.765625 25.582031 L 72.824219 25.582031 Z M 72.824219 18.949219" clip-rule="nonzero"/></clipPath><linearGradient id="7605862bc7" x1="28.039" x2="51.412" y1="5.004" y2="5.004" gradientTransform="matrix(0.724848, 0, 0, 0.721261, 52.501412, 18.370546)" gradientUnits="userSpaceOnUse"><stop offset="0" stop-color="#F2CC0C" stop-opacity="1"/><stop offset=".016" stop-color="#F2CC0C" stop-opacity="1"/><stop offset=".031" stop-color="#F2CB0D" stop-opacity="1"/><stop offset=".047" stop-color="#F3CA0D" stop-opacity="1"/><stop offset=".063" stop-color="#F3C90E" stop-opacity="1"/><stop offset=".078" stop-color="#F3C80E" stop-opacity="1"/><stop offset=".094" stop-color="#F3C80F" stop-opacity="1"/><stop offset=".109" stop-color="#F3C710" stop-opacity="1"/><stop offset=".125" stop-color="#F3C610" stop-opacity="1"/><stop offset=".141" stop-color="#F4C511" stop-opacity="1"/><stop offset=".156" stop-color="#F4C411" stop-opacity="1"/><stop offset=".172" stop-color="#F4C412" stop-opacity="1"/><stop offset=".188" stop-color="#F4C312" stop-opacity="1"/><stop offset=".203" stop-color="#F4C213" stop-opacity="1"/><stop offset=".219" stop-color="#F5C113" stop-opacity="1"/><stop offset=".234" stop-color="#F5C014" stop-opacity="1"/><stop offset=".25" stop-color="#F5C015" stop-opacity="1"/><stop offset=".266" stop-color="#F5BF15" stop-opacity="1"/><stop offset=".281" stop-color="#F5BE16" stop-opacity="1"/><stop offset=".297" stop-color="#F6BD16" stop-opacity="1"/><stop offset=".313" stop-color="#F6BC17" stop-opacity="1"/><stop offset=".328" stop-color="#F6BC17" stop-opacity="1"/><stop offset=".344" stop-color="#F6BB18" stop-opacity="1"/><stop offset=".359" stop-color="#F6BA18" stop-opacity="1"/><stop offset=".375" stop-color="#F7B919" stop-opacity="1"/><stop offset=".391" stop-color="#F7B919" stop-opacity="1"/><stop offset=".406" stop-color="#F7B81A" stop-opacity="1"/><stop offset=".422" stop-color="#F7B71B" stop-opacity="1"/><stop offset=".438" stop-color="#F7B61B" stop-opacity="1"/><stop offset=".453" stop-color="#F8B51C" stop-opacity="1"/><stop offset=".469" stop-color="#F8B51C" stop-opacity="1"/><stop offset=".484" stop-color="#F8B41D" stop-opacity="1"/><stop offset=".5" stop-color="#F8B31D" stop-opacity="1"/><stop offset=".516" stop-color="#F8B21E" stop-opacity="1"/><stop offset=".531" stop-color="#F9B11E" stop-opacity="1"/><stop offset=".547" stop-color="#F9B11F" stop-opacity="1"/><stop offset=".563" stop-color="#F9B01F" stop-opacity="1"/><stop offset=".578" stop-color="#F9AF20" stop-opacity="1"/><stop offset=".594" stop-color="#F9AE21" stop-opacity="1"/><stop offset=".609" stop-color="#FAAD21" stop-opacity="1"/><stop offset=".625" stop-color="#FAAD22" stop-opacity="1"/><stop offset=".641" stop-color="#FAAC22" stop-opacity="1"/><stop offset=".656" stop-color="#FAAB23" stop-opacity="1"/><stop offset=".672" stop-color="#FAAA23" stop-opacity="1"/><stop offset=".688" stop-color="#FBA924" stop-opacity="1"/><stop offset=".703" stop-color="#FBA924" stop-opacity="1"/><stop offset=".719" stop-color="#FBA825" stop-opacity="1"/><stop offset=".734" stop-color="#FBA725" stop-opacity="1"/><stop offset=".75" stop-color="#FBA626" stop-opacity="1"/><stop offset=".766" stop-color="#FCA627" stop-opacity="1"/><stop offset=".781" stop-color="#FCA527" stop-opacity="1"/><stop offset=".797" stop-color="#FCA428" stop-opacity="1"/><stop offset=".813" stop-color="#FCA328" stop-opacity="1"/><stop offset=".828" stop-color="#FCA229" stop-opacity="1"/><stop offset=".844" stop-color="#FDA229" stop-opacity="1"/><stop offset=".859" stop-color="#FDA12A" stop-opacity="1"/><stop offset=".875" stop-color="#FDA02A" stop-opacity="1"/><stop offset=".891" stop-color="#FD9F2B" stop-opacity="1"/><stop offset=".906" stop-color="#FD9E2B" stop-opacity="1"/><stop offset=".922" stop-color="#FE9E2C" stop-opacity="1"/><stop offset=".938" stop-color="#FE9D2D" stop-opacity="1"/><stop offset=".953" stop-color="#FE9C2D" stop-opacity="1"/><stop offset=".969" stop-color="#FE9B2E" stop-opacity="1"/><stop offset=".984" stop-color="#FE9A2E" stop-opacity="1"/><stop offset="1" stop-color="#FF9A2F" stop-opacity="1"/></linearGradient><clipPath id="e41efe86cc"><path d="M 72.824219 28.011719 L 89.765625 28.011719 L 89.765625 28.589844 L 72.824219 28.589844 Z M 72.824219 28.589844 L 89.765625 28.589844 L 89.765625 35.222656 L 72.824219 35.222656 Z M 72.824219 28.589844" clip-rule="nonzero"/></clipPath><linearGradient id="a429b1d81f" x1="28.039" x2="51.412" y1="5.004" y2="5.004" gradientTransform="matrix(0.724848, 0, 0, 0.721261, 52.501412, 28.011317)" gradientUnits="userSpaceOnUse"><stop offset="0" stop-color="#F2CC0C" stop-opacity="1"/><stop offset=".016" stop-color="#F2CC0C" stop-opacity="1"/><stop offset=".031" stop-color="#F2CB0D" stop-opacity="1"/><stop offset=".047" stop-color="#F3CA0D" stop-opacity="1"/><stop offset=".063" stop-color="#F3C90E" stop-opacity="1"/><stop offset=".078" stop-color="#F3C80E" stop-opacity="1"/><stop offset=".094" stop-color="#F3C80F" stop-opacity="1"/><stop offset=".109" stop-color="#F3C710" stop-opacity="1"/><stop offset=".125" stop-color="#F3C610" stop-opacity="1"/><stop offset=".141" stop-color="#F4C511" stop-opacity="1"/><stop offset=".156" stop-color="#F4C411" stop-opacity="1"/><stop offset=".172" stop-color="#F4C412" stop-opacity="1"/><stop offset=".188" stop-color="#F4C312" stop-opacity="1"/><stop offset=".203" stop-color="#F4C213" stop-opacity="1"/><stop offset=".219" stop-color="#F5C113" stop-opacity="1"/><stop offset=".234" stop-color="#F5C014" stop-opacity="1"/><stop offset=".25" stop-color="#F5C015" stop-opacity="1"/><stop offset=".266" stop-color="#F5BF15" stop-opacity="1"/><stop offset=".281" stop-color="#F5BE16" stop-opacity="1"/><stop offset=".297" stop-color="#F6BD16" stop-opacity="1"/><stop offset=".313" stop-color="#F6BC17" stop-opacity="1"/><stop offset=".328" stop-color="#F6BC17" stop-opacity="1"/><stop offset=".344" stop-color="#F6BB18" stop-opacity="1"/><stop offset=".359" stop-color="#F6BA18" stop-opacity="1"/><stop offset=".375" stop-color="#F7B919" stop-opacity="1"/><stop offset=".391" stop-color="#F7B919" stop-opacity="1"/><stop offset=".406" stop-color="#F7B81A" stop-opacity="1"/><stop offset=".422" stop-color="#F7B71B" stop-opacity="1"/><stop offset=".438" stop-color="#F7B61B" stop-opacity="1"/><stop offset=".453" stop-color="#F8B51C" stop-opacity="1"/><stop offset=".469" stop-color="#F8B51C" stop-opacity="1"/><stop offset=".484" stop-color="#F8B41D" stop-opacity="1"/><stop offset=".5" stop-color="#F8B31D" stop-opacity="1"/><stop offset=".516" stop-color="#F8B21E" stop-opacity="1"/><stop offset=".531" stop-color="#F9B11E" stop-opacity="1"/><stop offset=".547" stop-color="#F9B11F" stop-opacity="1"/><stop offset=".563" stop-color="#F9B01F" stop-opacity="1"/><stop offset=".578" stop-color="#F9AF20" stop-opacity="1"/><stop offset=".594" stop-color="#F9AE21" stop-opacity="1"/><stop offset=".609" stop-color="#FAAD21" stop-opacity="1"/><stop offset=".625" stop-color="#FAAD22" stop-opacity="1"/><stop offset=".641" stop-color="#FAAC22" stop-opacity="1"/><stop offset=".656" stop-color="#FAAB23" stop-opacity="1"/><stop offset=".672" stop-color="#FAAA23" stop-opacity="1"/><stop offset=".688" stop-color="#FBA924" stop-opacity="1"/><stop offset=".703" stop-color="#FBA924" stop-opacity="1"/><stop offset=".719" stop-color="#FBA825" stop-opacity="1"/><stop offset=".734" stop-color="#FBA725" stop-opacity="1"/><stop offset=".75" stop-color="#FBA626" stop-opacity="1"/><stop offset=".766" stop-color="#FCA627" stop-opacity="1"/><stop offset=".781" stop-color="#FCA527" stop-opacity="1"/><stop offset=".797" stop-color="#FCA428" stop-opacity="1"/><stop offset=".813" stop-color="#FCA328" stop-opacity="1"/><stop offset=".828" stop-color="#FCA229" stop-opacity="1"/><stop offset=".844" stop-color="#FDA229" stop-opacity="1"/><stop offset=".859" stop-color="#FDA12A" stop-opacity="1"/><stop offset=".875" stop-color="#FDA02A" stop-opacity="1"/><stop offset=".891" stop-color="#FD9F2B" stop-opacity="1"/><stop offset=".906" stop-color="#FD9E2B" stop-opacity="1"/><stop offset=".922" stop-color="#FE9E2C" stop-opacity="1"/><stop offset=".938" stop-color="#FE9D2D" stop-opacity="1"/><stop offset=".953" stop-color="#FE9C2D" stop-opacity="1"/><stop offset=".969" stop-color="#FE9B2E" stop-opacity="1"/><stop offset=".984" stop-color="#FE9A2E" stop-opacity="1"/><stop offset="1" stop-color="#FF9A2F" stop-opacity="1"/></linearGradient><clipPath id="8a3f75015e"><path d="M 93.214844 8.578125 L 110.15625 8.578125 L 110.15625 9.152344 L 93.214844 9.152344 Z M 93.214844 9.152344 L 110.15625 9.152344 L 110.15625 15.789062 L 93.214844 15.789062 Z M 93.214844 9.152344" clip-rule="nonzero"/></clipPath><linearGradient id="882d133e25" x1="28.039" x2="51.412" y1="5.004" y2="5.004" gradientTransform="matrix(0.724848, 0, 0, 0.721261, 72.889193, 8.576231)" gradientUnits="userSpaceOnUse"><stop offset="0" stop-color="#F2CC0C" stop-opacity="1"/><stop offset=".016" stop-color="#F2CC0C" stop-opacity="1"/><stop offset=".031" stop-color="#F2CB0D" stop-opacity="1"/><stop offset=".047" stop-color="#F3CA0D" stop-opacity="1"/><stop offset=".063" stop-color="#F3C90E" stop-opacity="1"/><stop offset=".078" stop-color="#F3C80E" stop-opacity="1"/><stop offset=".094" stop-color="#F3C80F" stop-opacity="1"/><stop offset=".109" stop-color="#F3C710" stop-opacity="1"/><stop offset=".125" stop-color="#F3C610" stop-opacity="1"/><stop offset=".141" stop-color="#F4C511" stop-opacity="1"/><stop offset=".156" stop-color="#F4C411" stop-opacity="1"/><stop offset=".172" stop-color="#F4C412" stop-opacity="1"/><stop offset=".188" stop-color="#F4C312" stop-opacity="1"/><stop offset=".203" stop-color="#F4C213" stop-opacity="1"/><stop offset=".219" stop-color="#F5C113" stop-opacity="1"/><stop offset=".234" stop-color="#F5C014" stop-opacity="1"/><stop offset=".25" stop-color="#F5C015" stop-opacity="1"/><stop offset=".266" stop-color="#F5BF15" stop-opacity="1"/><stop offset=".281" stop-color="#F5BE16" stop-opacity="1"/><stop offset=".297" stop-color="#F6BD16" stop-opacity="1"/><stop offset=".313" stop-color="#F6BC17" stop-opacity="1"/><stop offset=".328" stop-color="#F6BC17" stop-opacity="1"/><stop offset=".344" stop-color="#F6BB18" stop-opacity="1"/><stop offset=".359" stop-color="#F6BA18" stop-opacity="1"/><stop offset=".375" stop-color="#F7B919" stop-opacity="1"/><stop offset=".391" stop-color="#F7B919" stop-opacity="1"/><stop offset=".406" stop-color="#F7B81A" stop-opacity="1"/><stop offset=".422" stop-color="#F7B71B" stop-opacity="1"/><stop offset=".438" stop-color="#F7B61B" stop-opacity="1"/><stop offset=".453" stop-color="#F8B51C" stop-opacity="1"/><stop offset=".469" stop-color="#F8B51C" stop-opacity="1"/><stop offset=".484" stop-color="#F8B41D" stop-opacity="1"/><stop offset=".5" stop-color="#F8B31D" stop-opacity="1"/><stop offset=".516" stop-color="#F8B21E" stop-opacity="1"/><stop offset=".531" stop-color="#F9B11E" stop-opacity="1"/><stop offset=".547" stop-color="#F9B11F" stop-opacity="1"/><stop offset=".563" stop-color="#F9B01F" stop-opacity="1"/><stop offset=".578" stop-color="#F9AF20" stop-opacity="1"/><stop offset=".594" stop-color="#F9AE21" stop-opacity="1"/><stop offset=".609" stop-color="#FAAD21" stop-opacity="1"/><stop offset=".625" stop-color="#FAAD22" stop-opacity="1"/><stop offset=".641" stop-color="#FAAC22" stop-opacity="1"/><stop offset=".656" stop-color="#FAAB23" stop-opacity="1"/><stop offset=".672" stop-color="#FAAA23" stop-opacity="1"/><stop offset=".688" stop-color="#FBA924" stop-opacity="1"/><stop offset=".703" stop-color="#FBA924" stop-opacity="1"/><stop offset=".719" stop-color="#FBA825" stop-opacity="1"/><stop offset=".734" stop-color="#FBA725" stop-opacity="1"/><stop offset=".75" stop-color="#FBA626" stop-opacity="1"/><stop offset=".766" stop-color="#FCA627" stop-opacity="1"/><stop offset=".781" stop-color="#FCA527" stop-opacity="1"/><stop offset=".797" stop-color="#FCA428" stop-opacity="1"/><stop offset=".813" stop-color="#FCA328" stop-opacity="1"/><stop offset=".828" stop-color="#FCA229" stop-opacity="1"/><stop offset=".844" stop-color="#FDA229" stop-opacity="1"/><stop offset=".859" stop-color="#FDA12A" stop-opacity="1"/><stop offset=".875" stop-color="#FDA02A" stop-opacity="1"/><stop offset=".891" stop-color="#FD9F2B" stop-opacity="1"/><stop offset=".906" stop-color="#FD9E2B" stop-opacity="1"/><stop offset=".922" stop-color="#FE9E2C" stop-opacity="1"/><stop offset=".938" stop-color="#FE9D2D" stop-opacity="1"/><stop offset=".953" stop-color="#FE9C2D" stop-opacity="1"/><stop offset=".969" stop-color="#FE9B2E" stop-opacity="1"/><stop offset=".984" stop-color="#FE9A2E" stop-opacity="1"/><stop offset="1" stop-color="#FF9A2F" stop-opacity="1"/></linearGradient><clipPath id="2e0372461c"><path d="M 113.605469 8.578125 L 130.546875 8.578125 L 130.546875 9.152344 L 113.605469 9.152344 Z M 113.605469 9.152344 L 130.546875 9.152344 L 130.546875 15.789062 L 113.605469 15.789062 Z M 113.605469 9.152344" clip-rule="nonzero"/></clipPath><linearGradient id="764db36b54" x1="28.039" x2="51.412" y1="5.004" y2="5.004" gradientTransform="matrix(0.724848, 0, 0, 0.721261, 93.281478, 8.576231)" gradientUnits="userSpaceOnUse"><stop offset="0" stop-color="#F2CC0C" stop-opacity="1"/><stop offset=".016" stop-color="#F2CC0C" stop-opacity="1"/><stop offset=".031" stop-color="#F2CB0D" stop-opacity="1"/><stop offset=".047" stop-color="#F3CA0D" stop-opacity="1"/><stop offset=".063" stop-color="#F3C90E" stop-opacity="1"/><stop offset=".078" stop-color="#F3C80E" stop-opacity="1"/><stop offset=".094" stop-color="#F3C80F" stop-opacity="1"/><stop offset=".109" stop-color="#F3C710" stop-opacity="1"/><stop offset=".125" stop-color="#F3C610" stop-opacity="1"/><stop offset=".141" stop-color="#F4C511" stop-opacity="1"/><stop offset=".156" stop-color="#F4C411" stop-opacity="1"/><stop offset=".172" stop-color="#F4C412" stop-opacity="1"/><stop offset=".188" stop-color="#F4C312" stop-opacity="1"/><stop offset=".203" stop-color="#F4C213" stop-opacity="1"/><stop offset=".219" stop-color="#F5C113" stop-opacity="1"/><stop offset=".234" stop-color="#F5C014" stop-opacity="1"/><stop offset=".25" stop-color="#F5C015" stop-opacity="1"/><stop offset=".266" stop-color="#F5BF15" stop-opacity="1"/><stop offset=".281" stop-color="#F5BE16" stop-opacity="1"/><stop offset=".297" stop-color="#F6BD16" stop-opacity="1"/><stop offset=".313" stop-color="#F6BC17" stop-opacity="1"/><stop offset=".328" stop-color="#F6BC17" stop-opacity="1"/><stop offset=".344" stop-color="#F6BB18" stop-opacity="1"/><stop offset=".359" stop-color="#F6BA18" stop-opacity="1"/><stop offset=".375" stop-color="#F7B919" stop-opacity="1"/><stop offset=".391" stop-color="#F7B919" stop-opacity="1"/><stop offset=".406" stop-color="#F7B81A" stop-opacity="1"/><stop offset=".422" stop-color="#F7B71B" stop-opacity="1"/><stop offset=".438" stop-color="#F7B61B" stop-opacity="1"/><stop offset=".453" stop-color="#F8B51C" stop-opacity="1"/><stop offset=".469" stop-color="#F8B51C" stop-opacity="1"/><stop offset=".484" stop-color="#F8B41D" stop-opacity="1"/><stop offset=".5" stop-color="#F8B31D" stop-opacity="1"/><stop offset=".516" stop-color="#F8B21E" stop-opacity="1"/><stop offset=".531" stop-color="#F9B11E" stop-opacity="1"/><stop offset=".547" stop-color="#F9B11F" stop-opacity="1"/><stop offset=".563" stop-color="#F9B01F" stop-opacity="1"/><stop offset=".578" stop-color="#F9AF20" stop-opacity="1"/><stop offset=".594" stop-color="#F9AE21" stop-opacity="1"/><stop offset=".609" stop-color="#FAAD21" stop-opacity="1"/><stop offset=".625" stop-color="#FAAD22" stop-opacity="1"/><stop offset=".641" stop-color="#FAAC22" stop-opacity="1"/><stop offset=".656" stop-color="#FAAB23" stop-opacity="1"/><stop offset=".672" stop-color="#FAAA23" stop-opacity="1"/><stop offset=".688" stop-color="#FBA924" stop-opacity="1"/><stop offset=".703" stop-color="#FBA924" stop-opacity="1"/><stop offset=".719" stop-color="#FBA825" stop-opacity="1"/><stop offset=".734" stop-color="#FBA725" stop-opacity="1"/><stop offset=".75" stop-color="#FBA626" stop-opacity="1"/><stop offset=".766" stop-color="#FCA627" stop-opacity="1"/><stop offset=".781" stop-color="#FCA527" stop-opacity="1"/><stop offset=".797" stop-color="#FCA428" stop-opacity="1"/><stop offset=".813" stop-color="#FCA328" stop-opacity="1"/><stop offset=".828" stop-color="#FCA229" stop-opacity="1"/><stop offset=".844" stop-color="#FDA229" stop-opacity="1"/><stop offset=".859" stop-color="#FDA12A" stop-opacity="1"/><stop offset=".875" stop-color="#FDA02A" stop-opacity="1"/><stop offset=".891" stop-color="#FD9F2B" stop-opacity="1"/><stop offset=".906" stop-color="#FD9E2B" stop-opacity="1"/><stop offset=".922" stop-color="#FE9E2C" stop-opacity="1"/><stop offset=".938" stop-color="#FE9D2D" stop-opacity="1"/><stop offset=".953" stop-color="#FE9C2D" stop-opacity="1"/><stop offset=".969" stop-color="#FE9B2E" stop-opacity="1"/><stop offset=".984" stop-color="#FE9A2E" stop-opacity="1"/><stop offset="1" stop-color="#FF9A2F" stop-opacity="1"/></linearGradient><clipPath id="1b2cca72e2"><path d="M 93.175781 18.558594 L 110.09375 18.558594 L 110.09375 25.1875 L 93.175781 25.1875 Z M 93.175781 18.558594" clip-rule="nonzero"/></clipPath><clipPath id="50535c8f61"><path d="M 93.304688 28.328125 L 110.222656 28.328125 L 110.222656 34.957031 L 93.304688 34.957031 Z M 93.304688 28.328125" clip-rule="nonzero"/></clipPath><clipPath id="458f625111"><path d="M 113.660156 18.558594 L 130.578125 18.558594 L 130.578125 25.1875 L 113.660156 25.1875 Z M 113.660156 18.558594" clip-rule="nonzero"/></clipPath><clipPath id="ed8e03dbc0"><path d="M 113.761719 28.03125 L 130.679688 28.03125 L 130.679688 34.664062 L 113.761719 34.664062 Z M 113.761719 28.03125" clip-rule="nonzero"/></clipPath><clipPath id="a887c078d4"><path d="M 133.894531 18.625 L 150.8125 18.625 L 150.8125 25.253906 L 133.894531 25.253906 Z M 133.894531 18.625" clip-rule="nonzero"/></clipPath><clipPath id="2e1313b8e1"><path d="M 134.023438 27.792969 L 150.941406 27.792969 L 150.941406 34.421875 L 134.023438 34.421875 Z M 134.023438 27.792969" clip-rule="nonzero"/></clipPath><clipPath id="21653efc97"><path d="M 133.839844 8.570312 L 150.78125 8.570312 L 150.78125 9.148438 L 133.839844 9.148438 Z M 133.839844 9.148438 L 150.78125 9.148438 L 150.78125 15.78125 L 133.839844 15.78125 Z M 133.839844 9.148438" clip-rule="nonzero"/></clipPath><linearGradient id="f20bcca9a3" x1="28.039" x2="51.412" y1="5.004" y2="5.004" gradientTransform="matrix(0.724848, 0, 0, 0.721261, 113.515935, 8.570574)" gradientUnits="userSpaceOnUse"><stop offset="0" stop-color="#F2CC0C" stop-opacity="1"/><stop offset=".016" stop-color="#F2CC0C" stop-opacity="1"/><stop offset=".031" stop-color="#F2CB0D" stop-opacity="1"/><stop offset=".047" stop-color="#F3CA0D" stop-opacity="1"/><stop offset=".063" stop-color="#F3C90E" stop-opacity="1"/><stop offset=".078" stop-color="#F3C80E" stop-opacity="1"/><stop offset=".094" stop-color="#F3C80F" stop-opacity="1"/><stop offset=".109" stop-color="#F3C710" stop-opacity="1"/><stop offset=".125" stop-color="#F3C610" stop-opacity="1"/><stop offset=".141" stop-color="#F4C511" stop-opacity="1"/><stop offset=".156" stop-color="#F4C411" stop-opacity="1"/><stop offset=".172" stop-color="#F4C412" stop-opacity="1"/><stop offset=".188" stop-color="#F4C312" stop-opacity="1"/><stop offset=".203" stop-color="#F4C213" stop-opacity="1"/><stop offset=".219" stop-color="#F5C113" stop-opacity="1"/><stop offset=".234" stop-color="#F5C014" stop-opacity="1"/><stop offset=".25" stop-color="#F5C015" stop-opacity="1"/><stop offset=".266" stop-color="#F5BF15" stop-opacity="1"/><stop offset=".281" stop-color="#F5BE16" stop-opacity="1"/><stop offset=".297" stop-color="#F6BD16" stop-opacity="1"/><stop offset=".313" stop-color="#F6BC17" stop-opacity="1"/><stop offset=".328" stop-color="#F6BC17" stop-opacity="1"/><stop offset=".344" stop-color="#F6BB18" stop-opacity="1"/><stop offset=".359" stop-color="#F6BA18" stop-opacity="1"/><stop offset=".375" stop-color="#F7B919" stop-opacity="1"/><stop offset=".391" stop-color="#F7B919" stop-opacity="1"/><stop offset=".406" stop-color="#F7B81A" stop-opacity="1"/><stop offset=".422" stop-color="#F7B71B" stop-opacity="1"/><stop offset=".438" stop-color="#F7B61B" stop-opacity="1"/><stop offset=".453" stop-color="#F8B51C" stop-opacity="1"/><stop offset=".469" stop-color="#F8B51C" stop-opacity="1"/><stop offset=".484" stop-color="#F8B41D" stop-opacity="1"/><stop offset=".5" stop-color="#F8B31D" stop-opacity="1"/><stop offset=".516" stop-color="#F8B21E" stop-opacity="1"/><stop offset=".531" stop-color="#F9B11E" stop-opacity="1"/><stop offset=".547" stop-color="#F9B11F" stop-opacity="1"/><stop offset=".563" stop-color="#F9B01F" stop-opacity="1"/><stop offset=".578" stop-color="#F9AF20" stop-opacity="1"/><stop offset=".594" stop-color="#F9AE21" stop-opacity="1"/><stop offset=".609" stop-color="#FAAD21" stop-opacity="1"/><stop offset=".625" stop-color="#FAAD22" stop-opacity="1"/><stop offset=".641" stop-color="#FAAC22" stop-opacity="1"/><stop offset=".656" stop-color="#FAAB23" stop-opacity="1"/><stop offset=".672" stop-color="#FAAA23" stop-opacity="1"/><stop offset=".688" stop-color="#FBA924" stop-opacity="1"/><stop offset=".703" stop-color="#FBA924" stop-opacity="1"/><stop offset=".719" stop-color="#FBA825" stop-opacity="1"/><stop offset=".734" stop-color="#FBA725" stop-opacity="1"/><stop offset=".75" stop-color="#FBA626" stop-opacity="1"/><stop offset=".766" stop-color="#FCA627" stop-opacity="1"/><stop offset=".781" stop-color="#FCA527" stop-opacity="1"/><stop offset=".797" stop-color="#FCA428" stop-opacity="1"/><stop offset=".813" stop-color="#FCA328" stop-opacity="1"/><stop offset=".828" stop-color="#FCA229" stop-opacity="1"/><stop offset=".844" stop-color="#FDA229" stop-opacity="1"/><stop offset=".859" stop-color="#FDA12A" stop-opacity="1"/><stop offset=".875" stop-color="#FDA02A" stop-opacity="1"/><stop offset=".891" stop-color="#FD9F2B" stop-opacity="1"/><stop offset=".906" stop-color="#FD9E2B" stop-opacity="1"/><stop offset=".922" stop-color="#FE9E2C" stop-opacity="1"/><stop offset=".938" stop-color="#FE9D2D" stop-opacity="1"/><stop offset=".953" stop-color="#FE9C2D" stop-opacity="1"/><stop offset=".969" stop-color="#FE9B2E" stop-opacity="1"/><stop offset=".984" stop-color="#FE9A2E" stop-opacity="1"/><stop offset="1" stop-color="#FF9A2F" stop-opacity="1"/></linearGradient></defs><g clip-path="url(#0cc78e9abe)"><path fill="url(#78f737bf82)" fill-rule="nonzero" d="M 2.78125 2.292969 L 2.78125 9.503906 L 19.722656 9.503906 L 19.722656 2.292969 Z M 2.78125 2.292969"/></g><g clip-path="url(#59741fc677)"><path fill="url(#8b36d8a32c)" fill-rule="nonzero" d="M 2.78125 12.085938 L 2.78125 19.300781 L 19.722656 19.300781 L 19.722656 12.085938 Z M 2.78125 12.085938"/></g><g clip-path="url(#4f935a79b9)"><path fill="url(#f2c0bb83c0)" fill-rule="nonzero" d="M 2.78125 21.726562 L 2.78125 28.941406 L 19.722656 28.941406 L 19.722656 21.726562 Z M 2.78125 21.726562"/></g><g clip-path="url(#8400dc1f64)"><path fill="url(#e73fefaf04)" fill-rule="nonzero" d="M 2.78125 31.367188 L 2.78125 38.582031 L 19.722656 38.582031 L 19.722656 31.367188 Z M 2.78125 31.367188"/></g><g clip-path="url(#f01163ac74)"><path fill="url(#b1fb89d5c4)" fill-rule="nonzero" d="M 23.167969 2.292969 L 23.167969 9.503906 L 40.109375 9.503906 L 40.109375 2.292969 Z M 23.167969 2.292969"/></g><g clip-path="url(#5b0ecc485e)"><path fill="url(#c5b211b06c)" fill-rule="nonzero" d="M 43.5625 2.292969 L 43.5625 9.503906 L 60.503906 9.503906 L 60.503906 2.292969 Z M 43.5625 2.292969"/></g><g clip-path="url(#7286542c60)"><path fill="#84aff1" fill-opacity="1" fill-rule="nonzero" d="M 40.523438 12.222656 L 23.128906 12.222656 L 23.128906 19.078125 L 40.523438 19.078125 Z M 40.523438 12.222656"/></g><g clip-path="url(#1fa2f29718)"><path fill="#84aff1" fill-opacity="1" fill-rule="nonzero" d="M 60.917969 12.222656 L 43.523438 12.222656 L 43.523438 19.078125 L 60.917969 19.078125 Z M 60.917969 12.222656"/></g><g clip-path="url(#c94678cc51)"><path fill="#84aff1" fill-opacity="1" fill-rule="nonzero" d="M 40.585938 21.992188 L 23.191406 21.992188 L 23.191406 28.847656 L 40.585938 28.847656 Z M 40.585938 21.992188"/></g><g clip-path="url(#e9a287e80a)"><path fill="#84aff1" fill-opacity="1" fill-rule="nonzero" d="M 61.042969 21.992188 L 43.648438 21.992188 L 43.648438 28.847656 L 61.042969 28.847656 Z M 61.042969 21.992188"/></g><g clip-path="url(#a7d27cb965)"><path fill="#84aff1" fill-opacity="1" fill-rule="nonzero" d="M 40.585938 31.320312 L 23.191406 31.320312 L 23.191406 38.171875 L 40.585938 38.171875 Z M 40.585938 31.320312"/></g><g clip-path="url(#c25dc36c8d)"><path fill="#84aff1" fill-opacity="1" fill-rule="nonzero" d="M 60.980469 31.320312 L 43.585938 31.320312 L 43.585938 38.171875 L 60.980469 38.171875 Z M 60.980469 31.320312"/></g><g clip-path="url(#6ef4945aae)"><path fill="url(#24823a5bb5)" fill-rule="nonzero" d="M 72.824219 8.578125 L 72.824219 15.789062 L 89.765625 15.789062 L 89.765625 8.578125 Z M 72.824219 8.578125"/></g><g clip-path="url(#db6204473f)"><path fill="url(#7605862bc7)" fill-rule="nonzero" d="M 72.824219 18.371094 L 72.824219 25.582031 L 89.765625 25.582031 L 89.765625 18.371094 Z M 72.824219 18.371094"/></g><g clip-path="url(#e41efe86cc)"><path fill="url(#a429b1d81f)" fill-rule="nonzero" d="M 72.824219 28.011719 L 72.824219 35.222656 L 89.765625 35.222656 L 89.765625 28.011719 Z M 72.824219 28.011719"/></g><g clip-path="url(#8a3f75015e)"><path fill="url(#882d133e25)" fill-rule="nonzero" d="M 93.214844 8.578125 L 93.214844 15.789062 L 110.15625 15.789062 L 110.15625 8.578125 Z M 93.214844 8.578125"/></g><g clip-path="url(#2e0372461c)"><path fill="url(#764db36b54)" fill-rule="nonzero" d="M 113.605469 8.578125 L 113.605469 15.789062 L 130.546875 15.789062 L 130.546875 8.578125 Z M 113.605469 8.578125"/></g><g clip-path="url(#1b2cca72e2)"><path fill="#84aff1" fill-opacity="1" fill-rule="nonzero" d="M 110.570312 18.507812 L 93.175781 18.507812 L 93.175781 25.359375 L 110.570312 25.359375 Z M 110.570312 18.507812"/></g><g clip-path="url(#50535c8f61)"><path fill="#84aff1" fill-opacity="1" fill-rule="nonzero" d="M 110.699219 28.277344 L 93.304688 28.277344 L 93.304688 35.128906 L 110.699219 35.128906 Z M 110.699219 28.277344"/></g><g clip-path="url(#458f625111)"><path fill="#84aff1" fill-opacity="1" fill-rule="nonzero" d="M 131.054688 18.507812 L 113.660156 18.507812 L 113.660156 25.359375 L 131.054688 25.359375 Z M 131.054688 18.507812"/></g><g clip-path="url(#ed8e03dbc0)"><path fill="#84aff1" fill-opacity="1" fill-rule="nonzero" d="M 131.15625 27.984375 L 113.761719 27.984375 L 113.761719 34.835938 L 131.15625 34.835938 Z M 131.15625 27.984375"/></g><g clip-path="url(#a887c078d4)"><path fill="#84aff1" fill-opacity="1" fill-rule="nonzero" d="M 151.289062 18.574219 L 133.894531 18.574219 L 133.894531 25.429688 L 151.289062 25.429688 Z M 151.289062 18.574219"/></g><g clip-path="url(#2e1313b8e1)"><path fill="#84aff1" fill-opacity="1" fill-rule="nonzero" d="M 151.417969 27.742188 L 134.023438 27.742188 L 134.023438 34.59375 L 151.417969 34.59375 Z M 151.417969 27.742188"/></g><g clip-path="url(#21653efc97)"><path fill="url(#f20bcca9a3)" fill-rule="nonzero" d="M 133.839844 8.570312 L 133.839844 15.78125 L 150.78125 15.78125 L 150.78125 8.570312 Z M 133.839844 8.570312"/></g><g fill="#000" fill-opacity="1"><g><g><path d="M 0.625 0 L 0.625 -4.8125 L 2.5625 -4.8125 C 3.050781 -4.8125 3.421875 -4.695312 3.671875 -4.46875 C 3.929688 -4.238281 4.0625 -3.921875 4.0625 -3.515625 C 4.0625 -3.222656 3.984375 -2.984375 3.828125 -2.796875 C 3.679688 -2.609375 3.460938 -2.46875 3.171875 -2.375 L 3.171875 -2.296875 C 3.328125 -2.234375 3.453125 -2.132812 3.546875 -2 C 3.640625 -1.875 3.726562 -1.6875 3.8125 -1.4375 L 4.28125 0 L 3.3125 0 L 2.84375 -1.4375 C 2.789062 -1.582031 2.734375 -1.691406 2.671875 -1.765625 C 2.617188 -1.847656 2.546875 -1.90625 2.453125 -1.9375 C 2.359375 -1.976562 2.234375 -2 2.078125 -2 L 1.578125 -2 L 1.578125 0 Z M 2.4375 -2.75 C 2.894531 -2.75 3.125 -2.96875 3.125 -3.40625 C 3.125 -3.832031 2.894531 -4.046875 2.4375 -4.046875 L 1.578125 -4.046875 L 1.578125 -2.75 Z M 2.4375 -2.75" transform="translate(7.407211, 17.93532)"/></g></g></g><g fill="#000" fill-opacity="1"><g><g><path d="M 0.25 0 L 0.25 -0.78125 L 1.40625 -0.78125 L 1.40625 -3.78125 L 1.34375 -3.796875 C 1.175781 -3.710938 1.007812 -3.648438 0.84375 -3.609375 C 0.6875 -3.566406 0.507812 -3.53125 0.3125 -3.5 L 0.3125 -4.3125 C 0.84375 -4.425781 1.269531 -4.59375 1.59375 -4.8125 L 2.359375 -4.8125 L 2.359375 -0.78125 L 3.390625 -0.78125 L 3.390625 0 Z M 0.25 0" transform="translate(11.901125, 17.93532)"/></g></g></g><g fill="#000" fill-opacity="1"><g><g><path d="M 0.625 0 L 0.625 -4.8125 L 2.5625 -4.8125 C 3.050781 -4.8125 3.421875 -4.695312 3.671875 -4.46875 C 3.929688 -4.238281 4.0625 -3.921875 4.0625 -3.515625 C 4.0625 -3.222656 3.984375 -2.984375 3.828125 -2.796875 C 3.679688 -2.609375 3.460938 -2.46875 3.171875 -2.375 L 3.171875 -2.296875 C 3.328125 -2.234375 3.453125 -2.132812 3.546875 -2 C 3.640625 -1.875 3.726562 -1.6875 3.8125 -1.4375 L 4.28125 0 L 3.3125 0 L 2.84375 -1.4375 C 2.789062 -1.582031 2.734375 -1.691406 2.671875 -1.765625 C 2.617188 -1.847656 2.546875 -1.90625 2.453125 -1.9375 C 2.359375 -1.976562 2.234375 -2 2.078125 -2 L 1.578125 -2 L 1.578125 0 Z M 2.4375 -2.75 C 2.894531 -2.75 3.125 -2.96875 3.125 -3.40625 C 3.125 -3.832031 2.894531 -4.046875 2.4375 -4.046875 L 1.578125 -4.046875 L 1.578125 -2.75 Z M 2.4375 -2.75" transform="translate(7.303632, 27.306779)"/></g></g></g><g fill="#000" fill-opacity="1"><g><g><path d="M 0.234375 -0.375 C 0.234375 -0.644531 0.257812 -0.867188 0.3125 -1.046875 C 0.375 -1.234375 0.46875 -1.398438 0.59375 -1.546875 C 0.726562 -1.703125 0.914062 -1.863281 1.15625 -2.03125 L 1.8125 -2.5 C 1.976562 -2.625 2.109375 -2.734375 2.203125 -2.828125 C 2.304688 -2.921875 2.382812 -3.015625 2.4375 -3.109375 C 2.488281 -3.210938 2.515625 -3.328125 2.515625 -3.453125 C 2.515625 -3.648438 2.453125 -3.800781 2.328125 -3.90625 C 2.210938 -4.019531 2.035156 -4.078125 1.796875 -4.078125 C 1.566406 -4.078125 1.363281 -4.019531 1.1875 -3.90625 C 1.007812 -3.800781 0.863281 -3.65625 0.75 -3.46875 L 0.6875 -3.453125 L 0.171875 -4.03125 C 0.335938 -4.28125 0.554688 -4.484375 0.828125 -4.640625 C 1.109375 -4.796875 1.441406 -4.875 1.828125 -4.875 C 2.191406 -4.875 2.492188 -4.8125 2.734375 -4.6875 C 2.972656 -4.570312 3.148438 -4.410156 3.265625 -4.203125 C 3.390625 -4.003906 3.453125 -3.773438 3.453125 -3.515625 C 3.453125 -3.285156 3.40625 -3.070312 3.3125 -2.875 C 3.21875 -2.6875 3.082031 -2.515625 2.90625 -2.359375 C 2.738281 -2.203125 2.523438 -2.03125 2.265625 -1.84375 L 1.703125 -1.453125 C 1.523438 -1.328125 1.398438 -1.21875 1.328125 -1.125 C 1.265625 -1.03125 1.234375 -0.921875 1.234375 -0.796875 L 3.40625 -0.796875 L 3.40625 0 L 0.234375 0 Z M 0.234375 -0.375" transform="translate(11.797546, 27.306779)"/></g></g></g><g fill="#000" fill-opacity="1"><g><g><path d="M 0.625 0 L 0.625 -4.8125 L 2.5625 -4.8125 C 3.050781 -4.8125 3.421875 -4.695312 3.671875 -4.46875 C 3.929688 -4.238281 4.0625 -3.921875 4.0625 -3.515625 C 4.0625 -3.222656 3.984375 -2.984375 3.828125 -2.796875 C 3.679688 -2.609375 3.460938 -2.46875 3.171875 -2.375 L 3.171875 -2.296875 C 3.328125 -2.234375 3.453125 -2.132812 3.546875 -2 C 3.640625 -1.875 3.726562 -1.6875 3.8125 -1.4375 L 4.28125 0 L 3.3125 0 L 2.84375 -1.4375 C 2.789062 -1.582031 2.734375 -1.691406 2.671875 -1.765625 C 2.617188 -1.847656 2.546875 -1.90625 2.453125 -1.9375 C 2.359375 -1.976562 2.234375 -2 2.078125 -2 L 1.578125 -2 L 1.578125 0 Z M 2.4375 -2.75 C 2.894531 -2.75 3.125 -2.96875 3.125 -3.40625 C 3.125 -3.832031 2.894531 -4.046875 2.4375 -4.046875 L 1.578125 -4.046875 L 1.578125 -2.75 Z M 2.4375 -2.75" transform="translate(7.190188, 36.692702)"/></g></g></g><g fill="#000" fill-opacity="1"><g><g><path d="M 1.953125 0.0625 C 1.441406 0.0625 1.035156 -0.0390625 0.734375 -0.25 C 0.429688 -0.46875 0.238281 -0.78125 0.15625 -1.1875 L 0.875 -1.515625 L 0.953125 -1.5 C 1.035156 -1.238281 1.148438 -1.046875 1.296875 -0.921875 C 1.453125 -0.804688 1.660156 -0.75 1.921875 -0.75 C 2.179688 -0.75 2.378906 -0.804688 2.515625 -0.921875 C 2.648438 -1.046875 2.71875 -1.222656 2.71875 -1.453125 C 2.71875 -1.671875 2.648438 -1.84375 2.515625 -1.96875 C 2.378906 -2.09375 2.179688 -2.15625 1.921875 -2.15625 L 1.203125 -2.15625 L 1.203125 -2.890625 L 1.828125 -2.890625 C 2.046875 -2.890625 2.21875 -2.941406 2.34375 -3.046875 C 2.46875 -3.160156 2.53125 -3.316406 2.53125 -3.515625 C 2.53125 -3.710938 2.472656 -3.859375 2.359375 -3.953125 C 2.242188 -4.054688 2.078125 -4.109375 1.859375 -4.109375 C 1.648438 -4.109375 1.460938 -4.054688 1.296875 -3.953125 C 1.128906 -3.847656 0.992188 -3.710938 0.890625 -3.546875 L 0.8125 -3.53125 L 0.3125 -4.109375 C 0.488281 -4.335938 0.707031 -4.519531 0.96875 -4.65625 C 1.238281 -4.800781 1.554688 -4.875 1.921875 -4.875 C 2.421875 -4.875 2.800781 -4.769531 3.0625 -4.5625 C 3.332031 -4.351562 3.46875 -4.054688 3.46875 -3.671875 C 3.46875 -3.441406 3.410156 -3.242188 3.296875 -3.078125 C 3.191406 -2.921875 3.039062 -2.78125 2.84375 -2.65625 L 2.84375 -2.59375 C 3.394531 -2.394531 3.671875 -2 3.671875 -1.40625 C 3.671875 -1.101562 3.609375 -0.84375 3.484375 -0.625 C 3.359375 -0.40625 3.164062 -0.234375 2.90625 -0.109375 C 2.65625 0.00390625 2.335938 0.0625 1.953125 0.0625 Z M 1.953125 0.0625" transform="translate(11.684102, 36.692702)"/></g></g></g><g fill="#000" fill-opacity="1"><g><g><path d="M 2.625 0.0625 C 2.1875 0.0625 1.796875 -0.0234375 1.453125 -0.203125 C 1.117188 -0.390625 0.851562 -0.664062 0.65625 -1.03125 C 0.46875 -1.40625 0.375 -1.863281 0.375 -2.40625 C 0.375 -2.945312 0.46875 -3.398438 0.65625 -3.765625 C 0.851562 -4.140625 1.117188 -4.414062 1.453125 -4.59375 C 1.796875 -4.78125 2.1875 -4.875 2.625 -4.875 C 3.09375 -4.875 3.488281 -4.78125 3.8125 -4.59375 C 4.132812 -4.414062 4.363281 -4.144531 4.5 -3.78125 L 3.796875 -3.359375 L 3.71875 -3.359375 C 3.613281 -3.609375 3.472656 -3.785156 3.296875 -3.890625 C 3.117188 -4.003906 2.894531 -4.0625 2.625 -4.0625 C 2.226562 -4.0625 1.914062 -3.925781 1.6875 -3.65625 C 1.46875 -3.394531 1.359375 -2.976562 1.359375 -2.40625 C 1.359375 -1.832031 1.46875 -1.410156 1.6875 -1.140625 C 1.914062 -0.878906 2.226562 -0.75 2.625 -0.75 C 3.25 -0.75 3.632812 -1.050781 3.78125 -1.65625 L 3.859375 -1.65625 L 4.5625 -1.296875 C 4.425781 -0.835938 4.195312 -0.492188 3.875 -0.265625 C 3.5625 -0.046875 3.144531 0.0625 2.625 0.0625 Z M 2.625 0.0625" transform="translate(27.560215, 8.212119)"/></g></g></g><g fill="#000" fill-opacity="1"><g><g><path d="M 0.25 0 L 0.25 -0.78125 L 1.40625 -0.78125 L 1.40625 -3.78125 L 1.34375 -3.796875 C 1.175781 -3.710938 1.007812 -3.648438 0.84375 -3.609375 C 0.6875 -3.566406 0.507812 -3.53125 0.3125 -3.5 L 0.3125 -4.3125 C 0.84375 -4.425781 1.269531 -4.59375 1.59375 -4.8125 L 2.359375 -4.8125 L 2.359375 -0.78125 L 3.390625 -0.78125 L 3.390625 0 Z M 0.25 0" transform="translate(32.274384, 8.212119)"/></g></g></g><g fill="#000" fill-opacity="1"><g><g><path d="M 2.625 0.0625 C 2.1875 0.0625 1.796875 -0.0234375 1.453125 -0.203125 C 1.117188 -0.390625 0.851562 -0.664062 0.65625 -1.03125 C 0.46875 -1.40625 0.375 -1.863281 0.375 -2.40625 C 0.375 -2.945312 0.46875 -3.398438 0.65625 -3.765625 C 0.851562 -4.140625 1.117188 -4.414062 1.453125 -4.59375 C 1.796875 -4.78125 2.1875 -4.875 2.625 -4.875 C 3.09375 -4.875 3.488281 -4.78125 3.8125 -4.59375 C 4.132812 -4.414062 4.363281 -4.144531 4.5 -3.78125 L 3.796875 -3.359375 L 3.71875 -3.359375 C 3.613281 -3.609375 3.472656 -3.785156 3.296875 -3.890625 C 3.117188 -4.003906 2.894531 -4.0625 2.625 -4.0625 C 2.226562 -4.0625 1.914062 -3.925781 1.6875 -3.65625 C 1.46875 -3.394531 1.359375 -2.976562 1.359375 -2.40625 C 1.359375 -1.832031 1.46875 -1.410156 1.6875 -1.140625 C 1.914062 -0.878906 2.226562 -0.75 2.625 -0.75 C 3.25 -0.75 3.632812 -1.050781 3.78125 -1.65625 L 3.859375 -1.65625 L 4.5625 -1.296875 C 4.425781 -0.835938 4.195312 -0.492188 3.875 -0.265625 C 3.5625 -0.046875 3.144531 0.0625 2.625 0.0625 Z M 2.625 0.0625" transform="translate(47.972226, 8.217777)"/></g></g></g><g fill="#000" fill-opacity="1"><g><g><path d="M 0.234375 -0.375 C 0.234375 -0.644531 0.257812 -0.867188 0.3125 -1.046875 C 0.375 -1.234375 0.46875 -1.398438 0.59375 -1.546875 C 0.726562 -1.703125 0.914062 -1.863281 1.15625 -2.03125 L 1.8125 -2.5 C 1.976562 -2.625 2.109375 -2.734375 2.203125 -2.828125 C 2.304688 -2.921875 2.382812 -3.015625 2.4375 -3.109375 C 2.488281 -3.210938 2.515625 -3.328125 2.515625 -3.453125 C 2.515625 -3.648438 2.453125 -3.800781 2.328125 -3.90625 C 2.210938 -4.019531 2.035156 -4.078125 1.796875 -4.078125 C 1.566406 -4.078125 1.363281 -4.019531 1.1875 -3.90625 C 1.007812 -3.800781 0.863281 -3.65625 0.75 -3.46875 L 0.6875 -3.453125 L 0.171875 -4.03125 C 0.335938 -4.28125 0.554688 -4.484375 0.828125 -4.640625 C 1.109375 -4.796875 1.441406 -4.875 1.828125 -4.875 C 2.191406 -4.875 2.492188 -4.8125 2.734375 -4.6875 C 2.972656 -4.570312 3.148438 -4.410156 3.265625 -4.203125 C 3.390625 -4.003906 3.453125 -3.773438 3.453125 -3.515625 C 3.453125 -3.285156 3.40625 -3.070312 3.3125 -2.875 C 3.21875 -2.6875 3.082031 -2.515625 2.90625 -2.359375 C 2.738281 -2.203125 2.523438 -2.03125 2.265625 -1.84375 L 1.703125 -1.453125 C 1.523438 -1.328125 1.398438 -1.21875 1.328125 -1.125 C 1.265625 -1.03125 1.234375 -0.921875 1.234375 -0.796875 L 3.40625 -0.796875 L 3.40625 0 L 0.234375 0 Z M 0.234375 -0.375" transform="translate(52.686396, 8.217777)"/></g></g></g><g fill="#000" fill-opacity="1"><g><g><path d="M 3.859375 -4.8125 L 3.859375 -4.015625 L 2.46875 -4.015625 L 2.46875 0 L 1.515625 0 L 1.515625 -4.015625 L 0.125 -4.015625 L 0.125 -4.8125 Z M 3.859375 -4.8125" transform="translate(9.753033, 7.918055)"/></g></g></g><g fill="#000" fill-opacity="1"><g><g><path d="M 0.25 0 L 0.25 -0.78125 L 1.40625 -0.78125 L 1.40625 -3.78125 L 1.34375 -3.796875 C 1.175781 -3.710938 1.007812 -3.648438 0.84375 -3.609375 C 0.6875 -3.566406 0.507812 -3.53125 0.3125 -3.5 L 0.3125 -4.3125 C 0.84375 -4.425781 1.269531 -4.59375 1.59375 -4.8125 L 2.359375 -4.8125 L 2.359375 -0.78125 L 3.390625 -0.78125 L 3.390625 0 Z M 0.25 0" transform="translate(30.04217, 17.666008)"/></g></g></g><g fill="#000" fill-opacity="1"><g><g><path d="M 0.234375 -0.375 C 0.234375 -0.644531 0.257812 -0.867188 0.3125 -1.046875 C 0.375 -1.234375 0.46875 -1.398438 0.59375 -1.546875 C 0.726562 -1.703125 0.914062 -1.863281 1.15625 -2.03125 L 1.8125 -2.5 C 1.976562 -2.625 2.109375 -2.734375 2.203125 -2.828125 C 2.304688 -2.921875 2.382812 -3.015625 2.4375 -3.109375 C 2.488281 -3.210938 2.515625 -3.328125 2.515625 -3.453125 C 2.515625 -3.648438 2.453125 -3.800781 2.328125 -3.90625 C 2.210938 -4.019531 2.035156 -4.078125 1.796875 -4.078125 C 1.566406 -4.078125 1.363281 -4.019531 1.1875 -3.90625 C 1.007812 -3.800781 0.863281 -3.65625 0.75 -3.46875 L 0.6875 -3.453125 L 0.171875 -4.03125 C 0.335938 -4.28125 0.554688 -4.484375 0.828125 -4.640625 C 1.109375 -4.796875 1.441406 -4.875 1.828125 -4.875 C 2.191406 -4.875 2.492188 -4.8125 2.734375 -4.6875 C 2.972656 -4.570312 3.148438 -4.410156 3.265625 -4.203125 C 3.390625 -4.003906 3.453125 -3.773438 3.453125 -3.515625 C 3.453125 -3.285156 3.40625 -3.070312 3.3125 -2.875 C 3.21875 -2.6875 3.082031 -2.515625 2.90625 -2.359375 C 2.738281 -2.203125 2.523438 -2.03125 2.265625 -1.84375 L 1.703125 -1.453125 C 1.523438 -1.328125 1.398438 -1.21875 1.328125 -1.125 C 1.265625 -1.03125 1.234375 -0.921875 1.234375 -0.796875 L 3.40625 -0.796875 L 3.40625 0 L 0.234375 0 Z M 0.234375 -0.375" transform="translate(51.130956, 17.93532)"/></g></g></g><g fill="#000" fill-opacity="1"><g><g><path d="M 1.953125 0.0625 C 1.441406 0.0625 1.035156 -0.0390625 0.734375 -0.25 C 0.429688 -0.46875 0.238281 -0.78125 0.15625 -1.1875 L 0.875 -1.515625 L 0.953125 -1.5 C 1.035156 -1.238281 1.148438 -1.046875 1.296875 -0.921875 C 1.453125 -0.804688 1.660156 -0.75 1.921875 -0.75 C 2.179688 -0.75 2.378906 -0.804688 2.515625 -0.921875 C 2.648438 -1.046875 2.71875 -1.222656 2.71875 -1.453125 C 2.71875 -1.671875 2.648438 -1.84375 2.515625 -1.96875 C 2.378906 -2.09375 2.179688 -2.15625 1.921875 -2.15625 L 1.203125 -2.15625 L 1.203125 -2.890625 L 1.828125 -2.890625 C 2.046875 -2.890625 2.21875 -2.941406 2.34375 -3.046875 C 2.46875 -3.160156 2.53125 -3.316406 2.53125 -3.515625 C 2.53125 -3.710938 2.472656 -3.859375 2.359375 -3.953125 C 2.242188 -4.054688 2.078125 -4.109375 1.859375 -4.109375 C 1.648438 -4.109375 1.460938 -4.054688 1.296875 -3.953125 C 1.128906 -3.847656 0.992188 -3.710938 0.890625 -3.546875 L 0.8125 -3.53125 L 0.3125 -4.109375 C 0.488281 -4.335938 0.707031 -4.519531 0.96875 -4.65625 C 1.238281 -4.800781 1.554688 -4.875 1.921875 -4.875 C 2.421875 -4.875 2.800781 -4.769531 3.0625 -4.5625 C 3.332031 -4.351562 3.46875 -4.054688 3.46875 -3.671875 C 3.46875 -3.441406 3.410156 -3.242188 3.296875 -3.078125 C 3.191406 -2.921875 3.039062 -2.78125 2.84375 -2.65625 L 2.84375 -2.59375 C 3.394531 -2.394531 3.671875 -2 3.671875 -1.40625 C 3.671875 -1.101562 3.609375 -0.84375 3.484375 -0.625 C 3.359375 -0.40625 3.164062 -0.234375 2.90625 -0.109375 C 2.65625 0.00390625 2.335938 0.0625 1.953125 0.0625 Z M 1.953125 0.0625" transform="translate(29.701344, 27.306779)"/></g></g></g><g fill="#000" fill-opacity="1"><g><g><path d="M 3.265625 0 L 2.359375 0 L 2.359375 -1.046875 L 0.171875 -1.046875 L 0.171875 -1.8125 L 2.046875 -4.8125 L 3.265625 -4.8125 L 3.265625 -1.8125 L 4 -1.8125 L 4 -1.046875 L 3.265625 -1.046875 Z M 1.140625 -1.875 L 1.171875 -1.8125 L 2.359375 -1.8125 L 2.359375 -3.671875 L 2.28125 -3.6875 Z M 1.140625 -1.875" transform="translate(50.911466, 27.435567)"/></g></g></g><g fill="#000" fill-opacity="1"><g><g><path d="M 2 0.0625 C 1.519531 0.0625 1.140625 -0.0351562 0.859375 -0.234375 C 0.578125 -0.429688 0.394531 -0.710938 0.3125 -1.078125 L 1.03125 -1.390625 L 1.109375 -1.390625 C 1.171875 -1.171875 1.269531 -1.007812 1.40625 -0.90625 C 1.550781 -0.800781 1.75 -0.75 2 -0.75 C 2.25 -0.75 2.441406 -0.816406 2.578125 -0.953125 C 2.710938 -1.097656 2.78125 -1.3125 2.78125 -1.59375 C 2.78125 -1.875 2.710938 -2.085938 2.578125 -2.234375 C 2.441406 -2.378906 2.253906 -2.453125 2.015625 -2.453125 C 1.835938 -2.453125 1.6875 -2.410156 1.5625 -2.328125 C 1.445312 -2.253906 1.347656 -2.144531 1.265625 -2 L 0.484375 -2.046875 L 0.578125 -4.8125 L 3.453125 -4.8125 L 3.453125 -4.015625 L 1.390625 -4.015625 L 1.34375 -2.78125 L 1.40625 -2.765625 C 1.519531 -2.910156 1.65625 -3.019531 1.8125 -3.09375 C 1.96875 -3.175781 2.15625 -3.21875 2.375 -3.21875 C 2.644531 -3.21875 2.878906 -3.15625 3.078125 -3.03125 C 3.285156 -2.90625 3.445312 -2.722656 3.5625 -2.484375 C 3.675781 -2.242188 3.734375 -1.953125 3.734375 -1.609375 C 3.734375 -1.253906 3.664062 -0.953125 3.53125 -0.703125 C 3.394531 -0.453125 3.195312 -0.257812 2.9375 -0.125 C 2.675781 0 2.363281 0.0625 2 0.0625 Z M 2 0.0625" transform="translate(29.891734, 36.692702)"/></g></g></g><g fill="#000" fill-opacity="1"><g><g><path d="M 2.296875 0.0625 C 1.929688 0.0625 1.609375 -0.0195312 1.328125 -0.1875 C 1.046875 -0.351562 0.820312 -0.613281 0.65625 -0.96875 C 0.488281 -1.332031 0.40625 -1.796875 0.40625 -2.359375 C 0.40625 -2.929688 0.492188 -3.40625 0.671875 -3.78125 C 0.847656 -4.15625 1.085938 -4.429688 1.390625 -4.609375 C 1.691406 -4.785156 2.039062 -4.875 2.4375 -4.875 C 2.757812 -4.875 3.035156 -4.828125 3.265625 -4.734375 C 3.503906 -4.640625 3.691406 -4.5 3.828125 -4.3125 L 3.359375 -3.71875 L 3.28125 -3.71875 C 3.070312 -3.957031 2.789062 -4.078125 2.4375 -4.078125 C 1.75 -4.078125 1.394531 -3.578125 1.375 -2.578125 L 1.453125 -2.546875 C 1.566406 -2.753906 1.710938 -2.910156 1.890625 -3.015625 C 2.078125 -3.128906 2.304688 -3.1875 2.578125 -3.1875 C 2.878906 -3.1875 3.140625 -3.125 3.359375 -3 C 3.578125 -2.875 3.742188 -2.691406 3.859375 -2.453125 C 3.972656 -2.222656 4.03125 -1.945312 4.03125 -1.625 C 4.03125 -1.269531 3.957031 -0.960938 3.8125 -0.703125 C 3.675781 -0.453125 3.476562 -0.257812 3.21875 -0.125 C 2.957031 0 2.648438 0.0625 2.296875 0.0625 Z M 2.28125 -0.75 C 2.53125 -0.75 2.722656 -0.820312 2.859375 -0.96875 C 3.003906 -1.113281 3.078125 -1.316406 3.078125 -1.578125 C 3.078125 -1.835938 3.003906 -2.039062 2.859375 -2.1875 C 2.722656 -2.332031 2.53125 -2.40625 2.28125 -2.40625 C 2.113281 -2.40625 1.96875 -2.367188 1.84375 -2.296875 C 1.726562 -2.234375 1.632812 -2.140625 1.5625 -2.015625 C 1.5 -1.890625 1.46875 -1.742188 1.46875 -1.578125 C 1.46875 -1.316406 1.539062 -1.113281 1.6875 -0.96875 C 1.832031 -0.820312 2.03125 -0.75 2.28125 -0.75 Z M 2.28125 -0.75" transform="translate(50.672254, 36.760669)"/></g></g></g><g fill="#000" fill-opacity="1"><g><g><path d="M 2.625 0.0625 C 2.1875 0.0625 1.796875 -0.0234375 1.453125 -0.203125 C 1.117188 -0.390625 0.851562 -0.664062 0.65625 -1.03125 C 0.46875 -1.40625 0.375 -1.863281 0.375 -2.40625 C 0.375 -2.945312 0.46875 -3.398438 0.65625 -3.765625 C 0.851562 -4.140625 1.117188 -4.414062 1.453125 -4.59375 C 1.796875 -4.78125 2.1875 -4.875 2.625 -4.875 C 3.09375 -4.875 3.488281 -4.78125 3.8125 -4.59375 C 4.132812 -4.414062 4.363281 -4.144531 4.5 -3.78125 L 3.796875 -3.359375 L 3.71875 -3.359375 C 3.613281 -3.609375 3.472656 -3.785156 3.296875 -3.890625 C 3.117188 -4.003906 2.894531 -4.0625 2.625 -4.0625 C 2.226562 -4.0625 1.914062 -3.925781 1.6875 -3.65625 C 1.46875 -3.394531 1.359375 -2.976562 1.359375 -2.40625 C 1.359375 -1.832031 1.46875 -1.410156 1.6875 -1.140625 C 1.914062 -0.878906 2.226562 -0.75 2.625 -0.75 C 3.25 -0.75 3.632812 -1.050781 3.78125 -1.65625 L 3.859375 -1.65625 L 4.5625 -1.296875 C 4.425781 -0.835938 4.195312 -0.492188 3.875 -0.265625 C 3.5625 -0.046875 3.144531 0.0625 2.625 0.0625 Z M 2.625 0.0625" transform="translate(77.343314, 24.219007)"/></g></g></g><g fill="#000" fill-opacity="1"><g><g><path d="M 0.25 0 L 0.25 -0.78125 L 1.40625 -0.78125 L 1.40625 -3.78125 L 1.34375 -3.796875 C 1.175781 -3.710938 1.007812 -3.648438 0.84375 -3.609375 C 0.6875 -3.566406 0.507812 -3.53125 0.3125 -3.5 L 0.3125 -4.3125 C 0.84375 -4.425781 1.269531 -4.59375 1.59375 -4.8125 L 2.359375 -4.8125 L 2.359375 -0.78125 L 3.390625 -0.78125 L 3.390625 0 Z M 0.25 0" transform="translate(82.057484, 24.219007)"/></g></g></g><g fill="#000" fill-opacity="1"><g><g><path d="M 2.625 0.0625 C 2.1875 0.0625 1.796875 -0.0234375 1.453125 -0.203125 C 1.117188 -0.390625 0.851562 -0.664062 0.65625 -1.03125 C 0.46875 -1.40625 0.375 -1.863281 0.375 -2.40625 C 0.375 -2.945312 0.46875 -3.398438 0.65625 -3.765625 C 0.851562 -4.140625 1.117188 -4.414062 1.453125 -4.59375 C 1.796875 -4.78125 2.1875 -4.875 2.625 -4.875 C 3.09375 -4.875 3.488281 -4.78125 3.8125 -4.59375 C 4.132812 -4.414062 4.363281 -4.144531 4.5 -3.78125 L 3.796875 -3.359375 L 3.71875 -3.359375 C 3.613281 -3.609375 3.472656 -3.785156 3.296875 -3.890625 C 3.117188 -4.003906 2.894531 -4.0625 2.625 -4.0625 C 2.226562 -4.0625 1.914062 -3.925781 1.6875 -3.65625 C 1.46875 -3.394531 1.359375 -2.976562 1.359375 -2.40625 C 1.359375 -1.832031 1.46875 -1.410156 1.6875 -1.140625 C 1.914062 -0.878906 2.226562 -0.75 2.625 -0.75 C 3.25 -0.75 3.632812 -1.050781 3.78125 -1.65625 L 3.859375 -1.65625 L 4.5625 -1.296875 C 4.425781 -0.835938 4.195312 -0.492188 3.875 -0.265625 C 3.5625 -0.046875 3.144531 0.0625 2.625 0.0625 Z M 2.625 0.0625" transform="translate(77.239735, 33.590469)"/></g></g></g><g fill="#000" fill-opacity="1"><g><g><path d="M 0.234375 -0.375 C 0.234375 -0.644531 0.257812 -0.867188 0.3125 -1.046875 C 0.375 -1.234375 0.46875 -1.398438 0.59375 -1.546875 C 0.726562 -1.703125 0.914062 -1.863281 1.15625 -2.03125 L 1.8125 -2.5 C 1.976562 -2.625 2.109375 -2.734375 2.203125 -2.828125 C 2.304688 -2.921875 2.382812 -3.015625 2.4375 -3.109375 C 2.488281 -3.210938 2.515625 -3.328125 2.515625 -3.453125 C 2.515625 -3.648438 2.453125 -3.800781 2.328125 -3.90625 C 2.210938 -4.019531 2.035156 -4.078125 1.796875 -4.078125 C 1.566406 -4.078125 1.363281 -4.019531 1.1875 -3.90625 C 1.007812 -3.800781 0.863281 -3.65625 0.75 -3.46875 L 0.6875 -3.453125 L 0.171875 -4.03125 C 0.335938 -4.28125 0.554688 -4.484375 0.828125 -4.640625 C 1.109375 -4.796875 1.441406 -4.875 1.828125 -4.875 C 2.191406 -4.875 2.492188 -4.8125 2.734375 -4.6875 C 2.972656 -4.570312 3.148438 -4.410156 3.265625 -4.203125 C 3.390625 -4.003906 3.453125 -3.773438 3.453125 -3.515625 C 3.453125 -3.285156 3.40625 -3.070312 3.3125 -2.875 C 3.21875 -2.6875 3.082031 -2.515625 2.90625 -2.359375 C 2.738281 -2.203125 2.523438 -2.03125 2.265625 -1.84375 L 1.703125 -1.453125 C 1.523438 -1.328125 1.398438 -1.21875 1.328125 -1.125 C 1.265625 -1.03125 1.234375 -0.921875 1.234375 -0.796875 L 3.40625 -0.796875 L 3.40625 0 L 0.234375 0 Z M 0.234375 -0.375" transform="translate(81.953905, 33.590469)"/></g></g></g><g fill="#000" fill-opacity="1"><g><g><path d="M 0.625 0 L 0.625 -4.8125 L 2.5625 -4.8125 C 3.050781 -4.8125 3.421875 -4.695312 3.671875 -4.46875 C 3.929688 -4.238281 4.0625 -3.921875 4.0625 -3.515625 C 4.0625 -3.222656 3.984375 -2.984375 3.828125 -2.796875 C 3.679688 -2.609375 3.460938 -2.46875 3.171875 -2.375 L 3.171875 -2.296875 C 3.328125 -2.234375 3.453125 -2.132812 3.546875 -2 C 3.640625 -1.875 3.726562 -1.6875 3.8125 -1.4375 L 4.28125 0 L 3.3125 0 L 2.84375 -1.4375 C 2.789062 -1.582031 2.734375 -1.691406 2.671875 -1.765625 C 2.617188 -1.847656 2.546875 -1.90625 2.453125 -1.9375 C 2.359375 -1.976562 2.234375 -2 2.078125 -2 L 1.578125 -2 L 1.578125 0 Z M 2.4375 -2.75 C 2.894531 -2.75 3.125 -2.96875 3.125 -3.40625 C 3.125 -3.832031 2.894531 -4.046875 2.4375 -4.046875 L 1.578125 -4.046875 L 1.578125 -2.75 Z M 2.4375 -2.75" transform="translate(97.713335, 14.495807)"/></g></g></g><g fill="#000" fill-opacity="1"><g><g><path d="M 0.25 0 L 0.25 -0.78125 L 1.40625 -0.78125 L 1.40625 -3.78125 L 1.34375 -3.796875 C 1.175781 -3.710938 1.007812 -3.648438 0.84375 -3.609375 C 0.6875 -3.566406 0.507812 -3.53125 0.3125 -3.5 L 0.3125 -4.3125 C 0.84375 -4.425781 1.269531 -4.59375 1.59375 -4.8125 L 2.359375 -4.8125 L 2.359375 -0.78125 L 3.390625 -0.78125 L 3.390625 0 Z M 0.25 0" transform="translate(102.207249, 14.495807)"/></g></g></g><g fill="#000" fill-opacity="1"><g><g><path d="M 0.625 0 L 0.625 -4.8125 L 2.5625 -4.8125 C 3.050781 -4.8125 3.421875 -4.695312 3.671875 -4.46875 C 3.929688 -4.238281 4.0625 -3.921875 4.0625 -3.515625 C 4.0625 -3.222656 3.984375 -2.984375 3.828125 -2.796875 C 3.679688 -2.609375 3.460938 -2.46875 3.171875 -2.375 L 3.171875 -2.296875 C 3.328125 -2.234375 3.453125 -2.132812 3.546875 -2 C 3.640625 -1.875 3.726562 -1.6875 3.8125 -1.4375 L 4.28125 0 L 3.3125 0 L 2.84375 -1.4375 C 2.789062 -1.582031 2.734375 -1.691406 2.671875 -1.765625 C 2.617188 -1.847656 2.546875 -1.90625 2.453125 -1.9375 C 2.359375 -1.976562 2.234375 -2 2.078125 -2 L 1.578125 -2 L 1.578125 0 Z M 2.4375 -2.75 C 2.894531 -2.75 3.125 -2.96875 3.125 -3.40625 C 3.125 -3.832031 2.894531 -4.046875 2.4375 -4.046875 L 1.578125 -4.046875 L 1.578125 -2.75 Z M 2.4375 -2.75" transform="translate(118.130283, 14.501465)"/></g></g></g><g fill="#000" fill-opacity="1"><g><g><path d="M 0.234375 -0.375 C 0.234375 -0.644531 0.257812 -0.867188 0.3125 -1.046875 C 0.375 -1.234375 0.46875 -1.398438 0.59375 -1.546875 C 0.726562 -1.703125 0.914062 -1.863281 1.15625 -2.03125 L 1.8125 -2.5 C 1.976562 -2.625 2.109375 -2.734375 2.203125 -2.828125 C 2.304688 -2.921875 2.382812 -3.015625 2.4375 -3.109375 C 2.488281 -3.210938 2.515625 -3.328125 2.515625 -3.453125 C 2.515625 -3.648438 2.453125 -3.800781 2.328125 -3.90625 C 2.210938 -4.019531 2.035156 -4.078125 1.796875 -4.078125 C 1.566406 -4.078125 1.363281 -4.019531 1.1875 -3.90625 C 1.007812 -3.800781 0.863281 -3.65625 0.75 -3.46875 L 0.6875 -3.453125 L 0.171875 -4.03125 C 0.335938 -4.28125 0.554688 -4.484375 0.828125 -4.640625 C 1.109375 -4.796875 1.441406 -4.875 1.828125 -4.875 C 2.191406 -4.875 2.492188 -4.8125 2.734375 -4.6875 C 2.972656 -4.570312 3.148438 -4.410156 3.265625 -4.203125 C 3.390625 -4.003906 3.453125 -3.773438 3.453125 -3.515625 C 3.453125 -3.285156 3.40625 -3.070312 3.3125 -2.875 C 3.21875 -2.6875 3.082031 -2.515625 2.90625 -2.359375 C 2.738281 -2.203125 2.523438 -2.03125 2.265625 -1.84375 L 1.703125 -1.453125 C 1.523438 -1.328125 1.398438 -1.21875 1.328125 -1.125 C 1.265625 -1.03125 1.234375 -0.921875 1.234375 -0.796875 L 3.40625 -0.796875 L 3.40625 0 L 0.234375 0 Z M 0.234375 -0.375" transform="translate(122.624198, 14.501465)"/></g></g></g><g fill="#000" fill-opacity="1"><g><g><path d="M 3.859375 -4.8125 L 3.859375 -4.015625 L 2.46875 -4.015625 L 2.46875 0 L 1.515625 0 L 1.515625 -4.015625 L 0.125 -4.015625 L 0.125 -4.8125 Z M 3.859375 -4.8125" transform="translate(79.797647, 14.201743)"/></g></g></g><g fill="#000" fill-opacity="1"><g><g><path d="M 0.25 0 L 0.25 -0.78125 L 1.40625 -0.78125 L 1.40625 -3.78125 L 1.34375 -3.796875 C 1.175781 -3.710938 1.007812 -3.648438 0.84375 -3.609375 C 0.6875 -3.566406 0.507812 -3.53125 0.3125 -3.5 L 0.3125 -4.3125 C 0.84375 -4.425781 1.269531 -4.59375 1.59375 -4.8125 L 2.359375 -4.8125 L 2.359375 -0.78125 L 3.390625 -0.78125 L 3.390625 0 Z M 0.25 0" transform="translate(100.086779, 23.949696)"/></g></g></g><g fill="#000" fill-opacity="1"><g><g><path d="M 0.234375 -0.375 C 0.234375 -0.644531 0.257812 -0.867188 0.3125 -1.046875 C 0.375 -1.234375 0.46875 -1.398438 0.59375 -1.546875 C 0.726562 -1.703125 0.914062 -1.863281 1.15625 -2.03125 L 1.8125 -2.5 C 1.976562 -2.625 2.109375 -2.734375 2.203125 -2.828125 C 2.304688 -2.921875 2.382812 -3.015625 2.4375 -3.109375 C 2.488281 -3.210938 2.515625 -3.328125 2.515625 -3.453125 C 2.515625 -3.648438 2.453125 -3.800781 2.328125 -3.90625 C 2.210938 -4.019531 2.035156 -4.078125 1.796875 -4.078125 C 1.566406 -4.078125 1.363281 -4.019531 1.1875 -3.90625 C 1.007812 -3.800781 0.863281 -3.65625 0.75 -3.46875 L 0.6875 -3.453125 L 0.171875 -4.03125 C 0.335938 -4.28125 0.554688 -4.484375 0.828125 -4.640625 C 1.109375 -4.796875 1.441406 -4.875 1.828125 -4.875 C 2.191406 -4.875 2.492188 -4.8125 2.734375 -4.6875 C 2.972656 -4.570312 3.148438 -4.410156 3.265625 -4.203125 C 3.390625 -4.003906 3.453125 -3.773438 3.453125 -3.515625 C 3.453125 -3.285156 3.40625 -3.070312 3.3125 -2.875 C 3.21875 -2.6875 3.082031 -2.515625 2.90625 -2.359375 C 2.738281 -2.203125 2.523438 -2.03125 2.265625 -1.84375 L 1.703125 -1.453125 C 1.523438 -1.328125 1.398438 -1.21875 1.328125 -1.125 C 1.265625 -1.03125 1.234375 -0.921875 1.234375 -0.796875 L 3.40625 -0.796875 L 3.40625 0 L 0.234375 0 Z M 0.234375 -0.375" transform="translate(100.914058, 33.988566)"/></g></g></g><g fill="#000" fill-opacity="1"><g><g><path d="M 1.953125 0.0625 C 1.441406 0.0625 1.035156 -0.0390625 0.734375 -0.25 C 0.429688 -0.46875 0.238281 -0.78125 0.15625 -1.1875 L 0.875 -1.515625 L 0.953125 -1.5 C 1.035156 -1.238281 1.148438 -1.046875 1.296875 -0.921875 C 1.453125 -0.804688 1.660156 -0.75 1.921875 -0.75 C 2.179688 -0.75 2.378906 -0.804688 2.515625 -0.921875 C 2.648438 -1.046875 2.71875 -1.222656 2.71875 -1.453125 C 2.71875 -1.671875 2.648438 -1.84375 2.515625 -1.96875 C 2.378906 -2.09375 2.179688 -2.15625 1.921875 -2.15625 L 1.203125 -2.15625 L 1.203125 -2.890625 L 1.828125 -2.890625 C 2.046875 -2.890625 2.21875 -2.941406 2.34375 -3.046875 C 2.46875 -3.160156 2.53125 -3.316406 2.53125 -3.515625 C 2.53125 -3.710938 2.472656 -3.859375 2.359375 -3.953125 C 2.242188 -4.054688 2.078125 -4.109375 1.859375 -4.109375 C 1.648438 -4.109375 1.460938 -4.054688 1.296875 -3.953125 C 1.128906 -3.847656 0.992188 -3.710938 0.890625 -3.546875 L 0.8125 -3.53125 L 0.3125 -4.109375 C 0.488281 -4.335938 0.707031 -4.519531 0.96875 -4.65625 C 1.238281 -4.800781 1.554688 -4.875 1.921875 -4.875 C 2.421875 -4.875 2.800781 -4.769531 3.0625 -4.5625 C 3.332031 -4.351562 3.46875 -4.054688 3.46875 -3.671875 C 3.46875 -3.441406 3.410156 -3.242188 3.296875 -3.078125 C 3.191406 -2.921875 3.039062 -2.78125 2.84375 -2.65625 L 2.84375 -2.59375 C 3.394531 -2.394531 3.671875 -2 3.671875 -1.40625 C 3.671875 -1.101562 3.609375 -0.84375 3.484375 -0.625 C 3.359375 -0.40625 3.164062 -0.234375 2.90625 -0.109375 C 2.65625 0.00390625 2.335938 0.0625 1.953125 0.0625 Z M 1.953125 0.0625" transform="translate(120.169809, 23.820908)"/></g></g></g><g fill="#000" fill-opacity="1"><g><g><path d="M 3.265625 0 L 2.359375 0 L 2.359375 -1.046875 L 0.171875 -1.046875 L 0.171875 -1.8125 L 2.046875 -4.8125 L 3.265625 -4.8125 L 3.265625 -1.8125 L 4 -1.8125 L 4 -1.046875 L 3.265625 -1.046875 Z M 1.140625 -1.875 L 1.171875 -1.8125 L 2.359375 -1.8125 L 2.359375 -3.671875 L 2.28125 -3.6875 Z M 1.140625 -1.875" transform="translate(121.023713, 33.425191)"/></g></g></g><g fill="#000" fill-opacity="1"><g><g><path d="M 2 0.0625 C 1.519531 0.0625 1.140625 -0.0351562 0.859375 -0.234375 C 0.578125 -0.429688 0.394531 -0.710938 0.3125 -1.078125 L 1.03125 -1.390625 L 1.109375 -1.390625 C 1.171875 -1.171875 1.269531 -1.007812 1.40625 -0.90625 C 1.550781 -0.800781 1.75 -0.75 2 -0.75 C 2.25 -0.75 2.441406 -0.816406 2.578125 -0.953125 C 2.710938 -1.097656 2.78125 -1.3125 2.78125 -1.59375 C 2.78125 -1.875 2.710938 -2.085938 2.578125 -2.234375 C 2.441406 -2.378906 2.253906 -2.453125 2.015625 -2.453125 C 1.835938 -2.453125 1.6875 -2.410156 1.5625 -2.328125 C 1.445312 -2.253906 1.347656 -2.144531 1.265625 -2 L 0.484375 -2.046875 L 0.578125 -4.8125 L 3.453125 -4.8125 L 3.453125 -4.015625 L 1.390625 -4.015625 L 1.34375 -2.78125 L 1.40625 -2.765625 C 1.519531 -2.910156 1.65625 -3.019531 1.8125 -3.09375 C 1.96875 -3.175781 2.15625 -3.21875 2.375 -3.21875 C 2.644531 -3.21875 2.878906 -3.15625 3.078125 -3.03125 C 3.285156 -2.90625 3.445312 -2.722656 3.5625 -2.484375 C 3.675781 -2.242188 3.734375 -1.953125 3.734375 -1.609375 C 3.734375 -1.253906 3.664062 -0.953125 3.53125 -0.703125 C 3.394531 -0.453125 3.195312 -0.257812 2.9375 -0.125 C 2.675781 0 2.363281 0.0625 2 0.0625 Z M 2 0.0625" transform="translate(140.594644, 23.949696)"/></g></g></g><g fill="#000" fill-opacity="1"><g><g><path d="M 2.296875 0.0625 C 1.929688 0.0625 1.609375 -0.0195312 1.328125 -0.1875 C 1.046875 -0.351562 0.820312 -0.613281 0.65625 -0.96875 C 0.488281 -1.332031 0.40625 -1.796875 0.40625 -2.359375 C 0.40625 -2.929688 0.492188 -3.40625 0.671875 -3.78125 C 0.847656 -4.15625 1.085938 -4.429688 1.390625 -4.609375 C 1.691406 -4.785156 2.039062 -4.875 2.4375 -4.875 C 2.757812 -4.875 3.035156 -4.828125 3.265625 -4.734375 C 3.503906 -4.640625 3.691406 -4.5 3.828125 -4.3125 L 3.359375 -3.71875 L 3.28125 -3.71875 C 3.070312 -3.957031 2.789062 -4.078125 2.4375 -4.078125 C 1.75 -4.078125 1.394531 -3.578125 1.375 -2.578125 L 1.453125 -2.546875 C 1.566406 -2.753906 1.710938 -2.910156 1.890625 -3.015625 C 2.078125 -3.128906 2.304688 -3.1875 2.578125 -3.1875 C 2.878906 -3.1875 3.140625 -3.125 3.359375 -3 C 3.578125 -2.875 3.742188 -2.691406 3.859375 -2.453125 C 3.972656 -2.222656 4.03125 -1.945312 4.03125 -1.625 C 4.03125 -1.269531 3.957031 -0.960938 3.8125 -0.703125 C 3.675781 -0.453125 3.476562 -0.257812 3.21875 -0.125 C 2.957031 0 2.648438 0.0625 2.296875 0.0625 Z M 2.28125 -0.75 C 2.53125 -0.75 2.722656 -0.820312 2.859375 -0.96875 C 3.003906 -1.113281 3.078125 -1.316406 3.078125 -1.578125 C 3.078125 -1.835938 3.003906 -2.039062 2.859375 -2.1875 C 2.722656 -2.332031 2.53125 -2.40625 2.28125 -2.40625 C 2.113281 -2.40625 1.96875 -2.367188 1.84375 -2.296875 C 1.726562 -2.234375 1.632812 -2.140625 1.5625 -2.015625 C 1.5 -1.890625 1.46875 -1.742188 1.46875 -1.578125 C 1.46875 -1.316406 1.539062 -1.113281 1.6875 -0.96875 C 1.832031 -0.820312 2.03125 -0.75 2.28125 -0.75 Z M 2.28125 -0.75" transform="translate(141.109147, 33.184927)"/></g></g></g><g fill="#000" fill-opacity="1"><g><g><path d="M 0.625 0 L 0.625 -4.8125 L 2.5625 -4.8125 C 3.050781 -4.8125 3.421875 -4.695312 3.671875 -4.46875 C 3.929688 -4.238281 4.0625 -3.921875 4.0625 -3.515625 C 4.0625 -3.222656 3.984375 -2.984375 3.828125 -2.796875 C 3.679688 -2.609375 3.460938 -2.46875 3.171875 -2.375 L 3.171875 -2.296875 C 3.328125 -2.234375 3.453125 -2.132812 3.546875 -2 C 3.640625 -1.875 3.726562 -1.6875 3.8125 -1.4375 L 4.28125 0 L 3.3125 0 L 2.84375 -1.4375 C 2.789062 -1.582031 2.734375 -1.691406 2.671875 -1.765625 C 2.617188 -1.847656 2.546875 -1.90625 2.453125 -1.9375 C 2.359375 -1.976562 2.234375 -2 2.078125 -2 L 1.578125 -2 L 1.578125 0 Z M 2.4375 -2.75 C 2.894531 -2.75 3.125 -2.96875 3.125 -3.40625 C 3.125 -3.832031 2.894531 -4.046875 2.4375 -4.046875 L 1.578125 -4.046875 L 1.578125 -2.75 Z M 2.4375 -2.75" transform="translate(138.251285, 14.495807)"/></g></g></g><g fill="#000" fill-opacity="1"><g><g><path d="M 1.953125 0.0625 C 1.441406 0.0625 1.035156 -0.0390625 0.734375 -0.25 C 0.429688 -0.46875 0.238281 -0.78125 0.15625 -1.1875 L 0.875 -1.515625 L 0.953125 -1.5 C 1.035156 -1.238281 1.148438 -1.046875 1.296875 -0.921875 C 1.453125 -0.804688 1.660156 -0.75 1.921875 -0.75 C 2.179688 -0.75 2.378906 -0.804688 2.515625 -0.921875 C 2.648438 -1.046875 2.71875 -1.222656 2.71875 -1.453125 C 2.71875 -1.671875 2.648438 -1.84375 2.515625 -1.96875 C 2.378906 -2.09375 2.179688 -2.15625 1.921875 -2.15625 L 1.203125 -2.15625 L 1.203125 -2.890625 L 1.828125 -2.890625 C 2.046875 -2.890625 2.21875 -2.941406 2.34375 -3.046875 C 2.46875 -3.160156 2.53125 -3.316406 2.53125 -3.515625 C 2.53125 -3.710938 2.472656 -3.859375 2.359375 -3.953125 C 2.242188 -4.054688 2.078125 -4.109375 1.859375 -4.109375 C 1.648438 -4.109375 1.460938 -4.054688 1.296875 -3.953125 C 1.128906 -3.847656 0.992188 -3.710938 0.890625 -3.546875 L 0.8125 -3.53125 L 0.3125 -4.109375 C 0.488281 -4.335938 0.707031 -4.519531 0.96875 -4.65625 C 1.238281 -4.800781 1.554688 -4.875 1.921875 -4.875 C 2.421875 -4.875 2.800781 -4.769531 3.0625 -4.5625 C 3.332031 -4.351562 3.46875 -4.054688 3.46875 -3.671875 C 3.46875 -3.441406 3.410156 -3.242188 3.296875 -3.078125 C 3.191406 -2.921875 3.039062 -2.78125 2.84375 -2.65625 L 2.84375 -2.59375 C 3.394531 -2.394531 3.671875 -2 3.671875 -1.40625 C 3.671875 -1.101562 3.609375 -0.84375 3.484375 -0.625 C 3.359375 -0.40625 3.164062 -0.234375 2.90625 -0.109375 C 2.65625 0.00390625 2.335938 0.0625 1.953125 0.0625 Z M 1.953125 0.0625" transform="translate(142.7452, 14.495807)"/></g></g></g><path fill="#ccccdc" fill-opacity="1" fill-rule="nonzero" d="M 65.773438 25.683594 C 66.277344 25.683594 70.136719 22.800781 70.136719 21.359375 C 70.136719 19.914062 66.375 17.03125 65.773438 17.03125 C 65.175781 17.03125 64.6875 17.390625 64.6875 18.09375 C 64.6875 18.796875 67.222656 20.578125 67.222656 20.578125 C 67.222656 20.578125 61.683594 20.09375 61.5 20.578125 C 61.316406 21.0625 61.316406 21.652344 61.5 22.136719 C 61.683594 22.621094 67.222656 22.136719 67.222656 22.136719 C 67.222656 22.136719 64.6875 24.0625 64.6875 24.625 C 64.6875 25.1875 65.273438 25.683594 65.773438 25.683594 Z M 65.773438 25.683594"/></svg>