<svg xmlns="http://www.w3.org/2000/svg" xmlns:xlink="http://www.w3.org/1999/xlink" id="Layer_2" viewBox="0 0 84.64 85.34"><defs><style>.cls-1{fill:#84aff1}.cls-2{fill:#3865ab}.cls-3{fill:url(#New_Gradient_Swatch_1)}</style><linearGradient id="New_Gradient_Swatch_1" x1="0" x2="84.64" y1="4" y2="4" gradientTransform="matrix(1, 0, 0, 1, 0, 0)" gradientUnits="userSpaceOnUse"><stop offset="0" stop-color="#f2cc0c"/><stop offset="1" stop-color="#ff9830"/></linearGradient></defs><g id="Icons"><rect width="84.64" height="8" class="cls-3"/><rect width="18.28" height="8" x="44.06" y="11.05" class="cls-2"/><rect width="18.28" height="8" x="44.06" y="22.1" class="cls-1"/><rect width="16.28" height="8" x="44.06" y="33.14" class="cls-2"/><rect width="16.28" height="8" x="44.06" y="44.19" class="cls-1"/><rect width="14.23" height="8" x="44.06" y="55.24" class="cls-2"/><rect width="10.28" height="8" x="44.06" y="66.29" class="cls-1"/><rect width="10.28" height="8" x="44.06" y="77.34" class="cls-2"/><rect width="17.81" height="8" x="66.83" y="11.05" class="cls-2"/><rect width="17.81" height="8" x="66.83" y="22.1" class="cls-1"/><rect width="17.81" height="8" x="66.83" y="33.14" class="cls-2"/><rect width="13.81" height="8" x="66.83" y="44.19" class="cls-1"/><rect width="10.81" height="8" x="66.83" y="55.24" class="cls-2"/><rect width="17.28" height="8" y="11.05" class="cls-2"/><rect width="17.28" height="8" y="22.1" class="cls-1"/><rect width="9.28" height="8" y="33.14" class="cls-2"/><rect width="9.28" height="8" y="44.19" class="cls-1"/><rect width="9.28" height="8" y="55.24" class="cls-2"/><rect width="9.28" height="8" y="66.29" class="cls-1"/><rect width="5.28" height="8" y="77.34" class="cls-2"/><rect width="18.28" height="8" x="21.53" y="11.05" class="cls-2"/><rect width="18.28" height="8" x="21.53" y="22.1" class="cls-1"/><rect width="8.55" height="7.96" x="21.53" y="33.16" class="cls-2"/><rect width="8.55" height="7.96" x="21.53" y="44.21" class="cls-1"/><rect width="6.55" height="7.96" x="21.53" y="55.26" class="cls-2"/><rect width="4.55" height="7.96" x="21.53" y="66.31" class="cls-1"/></g></svg>